<svg width="124" height="124" viewBox="0 0 124 124" fill="none" xmlns="http://www.w3.org/2000/svg">
<rect x="1" y="1" width="121.636" height="121.636" rx="9" stroke="#741FFF" stroke-width="2"/>
<path d="M25.1246 85.5646H26.3396V90.9346C26.2996 90.9446 26.2246 90.9696 26.1146 91.0096C26.0046 91.0396 25.8946 91.0546 25.7846 91.0546C25.5846 91.0546 25.4246 90.9946 25.3046 90.8746C25.1846 90.7446 25.1246 90.5846 25.1246 90.3946V85.5646ZM26.3396 87.3346L25.1246 87.3196V82.5946C25.1246 82.3946 25.1846 82.2346 25.3046 82.1146C25.4246 81.9946 25.5846 81.9346 25.7846 81.9346C25.8946 81.9346 26.0046 81.9496 26.1146 81.9796C26.2246 82.0096 26.2996 82.0346 26.3396 82.0546V87.3346ZM25.7846 86.8846V85.8646H30.2996C30.3296 85.9046 30.3596 85.9696 30.3896 86.0596C30.4196 86.1496 30.4346 86.2446 30.4346 86.3446C30.4346 86.5046 30.3946 86.6346 30.3146 86.7346C30.2346 86.8346 30.1196 86.8846 29.9696 86.8846H25.7846ZM25.7846 91.0546V90.0346H30.8396C30.8696 90.0746 30.8996 90.1396 30.9296 90.2296C30.9596 90.3096 30.9746 90.4046 30.9746 90.5146C30.9746 90.6746 30.9346 90.8046 30.8546 90.9046C30.7746 91.0046 30.6596 91.0546 30.5096 91.0546H25.7846ZM25.7846 82.9696V81.9346H30.7646C30.7946 81.9746 30.8246 82.0396 30.8546 82.1296C30.8846 82.2196 30.8996 82.3146 30.8996 82.4146C30.8996 82.5746 30.8596 82.7096 30.7796 82.8196C30.6996 82.9196 30.5846 82.9696 30.4346 82.9696H25.7846ZM37.3446 89.8696V84.8296L38.5446 84.8146V89.9146C38.5446 90.1046 38.4996 90.2596 38.4096 90.3796C38.3296 90.4896 38.1996 90.5996 38.0196 90.7096C37.8196 90.8396 37.5346 90.9596 37.1646 91.0696C36.7946 91.1896 36.3696 91.2496 35.8896 91.2496C35.1696 91.2496 34.5346 91.1246 33.9846 90.8746C33.4346 90.6246 33.0046 90.2346 32.6946 89.7046C32.3846 89.1646 32.2296 88.4696 32.2296 87.6196C32.2296 86.7496 32.3796 86.0446 32.6796 85.5046C32.9896 84.9646 33.4046 84.5696 33.9246 84.3196C34.4446 84.0596 35.0146 83.9296 35.6346 83.9296C36.0246 83.9296 36.3946 83.9846 36.7446 84.0946C37.0946 84.2046 37.3696 84.3396 37.5696 84.4996V85.6096C37.3796 85.4196 37.1296 85.2596 36.8196 85.1296C36.5196 84.9896 36.1646 84.9196 35.7546 84.9196C35.3446 84.9196 34.9646 85.0096 34.6146 85.1896C34.2646 85.3596 33.9846 85.6446 33.7746 86.0446C33.5646 86.4446 33.4596 86.9796 33.4596 87.6496C33.4596 88.5596 33.6796 89.2246 34.1196 89.6446C34.5596 90.0546 35.1446 90.2596 35.8746 90.2596C36.2246 90.2596 36.5096 90.2246 36.7296 90.1546C36.9596 90.0746 37.1646 89.9796 37.3446 89.8696ZM38.5446 85.1146L37.3446 85.1296V81.3346C37.3946 81.3146 37.4696 81.2946 37.5696 81.2746C37.6796 81.2446 37.7896 81.2296 37.8996 81.2296C38.1196 81.2296 38.2796 81.2746 38.3796 81.3646C38.4896 81.4446 38.5446 81.5796 38.5446 81.7696V85.1146ZM40.7178 81.9346C40.7178 81.7246 40.7928 81.5496 40.9428 81.4096C41.0928 81.2596 41.2778 81.1846 41.4978 81.1846C41.7278 81.1846 41.9128 81.2596 42.0528 81.4096C42.1928 81.5496 42.2628 81.7246 42.2628 81.9346C42.2628 82.1446 42.1928 82.3246 42.0528 82.4746C41.9128 82.6146 41.7278 82.6846 41.4978 82.6846C41.2778 82.6846 41.0928 82.6146 40.9428 82.4746C40.7928 82.3246 40.7178 82.1446 40.7178 81.9346ZM40.8978 87.0946H42.0978V91.0246C42.0478 91.0446 41.9728 91.0646 41.8728 91.0846C41.7728 91.1146 41.6628 91.1296 41.5428 91.1296C41.3328 91.1296 41.1728 91.0896 41.0628 91.0096C40.9528 90.9196 40.8978 90.7796 40.8978 90.5896V87.0946ZM42.0978 87.6796H40.8978V84.1546C40.9478 84.1346 41.0228 84.1146 41.1228 84.0946C41.2328 84.0646 41.3478 84.0496 41.4678 84.0496C41.6778 84.0496 41.8328 84.0946 41.9328 84.1846C42.0428 84.2646 42.0978 84.4046 42.0978 84.6046V87.6796ZM44.4559 87.0946H45.6559V89.1646C45.6559 89.5646 45.7709 89.8496 46.0009 90.0196C46.2309 90.1796 46.5459 90.2596 46.9459 90.2596C47.1159 90.2596 47.3059 90.2296 47.5159 90.1696C47.7259 90.1096 47.9009 90.0396 48.0409 89.9596C48.1009 90.0196 48.1559 90.0946 48.2059 90.1846C48.2559 90.2746 48.2809 90.3796 48.2809 90.4996C48.2809 90.7196 48.1509 90.8996 47.8909 91.0396C47.6309 91.1796 47.2709 91.2496 46.8109 91.2496C46.1109 91.2496 45.5409 91.0946 45.1009 90.7846C44.6709 90.4746 44.4559 89.9596 44.4559 89.2396V87.0946ZM45.0709 85.2646V84.2746H48.1159C48.1459 84.3146 48.1759 84.3796 48.2059 84.4696C48.2359 84.5596 48.2509 84.6546 48.2509 84.7546C48.2509 84.9146 48.2109 85.0396 48.1309 85.1296C48.0509 85.2196 47.9409 85.2646 47.8009 85.2646H45.0709ZM45.6559 87.5446H44.4559V82.1146C44.5059 82.0946 44.5809 82.0746 44.6809 82.0546C44.7909 82.0246 44.9059 82.0096 45.0259 82.0096C45.2359 82.0096 45.3909 82.0546 45.4909 82.1446C45.6009 82.2246 45.6559 82.3596 45.6559 82.5496V87.5446ZM52.5849 90.2746C53.0049 90.2746 53.3499 90.2346 53.6199 90.1546C53.8999 90.0646 54.0999 89.9796 54.2199 89.8996V87.7246L52.3599 87.9196C51.8399 87.9596 51.4549 88.0746 51.2049 88.2646C50.9549 88.4546 50.8299 88.7296 50.8299 89.0896C50.8299 89.4596 50.9749 89.7496 51.2649 89.9596C51.5649 90.1696 52.0049 90.2746 52.5849 90.2746ZM52.5699 83.9296C53.4399 83.9296 54.1299 84.1246 54.6399 84.5146C55.1499 84.9046 55.4049 85.5196 55.4049 86.3596V89.9146C55.4049 90.1346 55.3599 90.3046 55.2699 90.4246C55.1899 90.5346 55.0649 90.6396 54.8949 90.7396C54.6549 90.8696 54.3349 90.9896 53.9349 91.0996C53.5349 91.2096 53.0849 91.2646 52.5849 91.2646C51.6449 91.2646 50.9149 91.0796 50.3949 90.7096C49.8849 90.3396 49.6299 89.8046 49.6299 89.1046C49.6299 88.4546 49.8449 87.9596 50.2749 87.6196C50.7149 87.2696 51.3199 87.0596 52.0899 86.9896L54.2199 86.7796V86.3596C54.2199 85.8596 54.0699 85.4946 53.7699 85.2646C53.4699 85.0346 53.0649 84.9196 52.5549 84.9196C52.1449 84.9196 51.7499 84.9796 51.3699 85.0996C50.9999 85.2196 50.6699 85.3546 50.3799 85.5046C50.2999 85.4346 50.2249 85.3546 50.1549 85.2646C50.0949 85.1646 50.0649 85.0646 50.0649 84.9646C50.0649 84.7046 50.2099 84.5046 50.4999 84.3646C50.7699 84.2246 51.0799 84.1196 51.4299 84.0496C51.7899 83.9696 52.1699 83.9296 52.5699 83.9296ZM58.7952 85.4146V87.7846H57.5952V85.5046C57.5952 85.2746 57.6352 85.0946 57.7152 84.9646C57.8052 84.8246 57.9502 84.6896 58.1502 84.5596C58.4102 84.3896 58.7652 84.2446 59.2152 84.1246C59.6652 83.9946 60.1652 83.9296 60.7152 83.9296C61.5152 83.9296 61.9152 84.1296 61.9152 84.5296C61.9152 84.6296 61.9002 84.7246 61.8702 84.8146C61.8402 84.8946 61.8002 84.9646 61.7502 85.0246C61.6502 85.0046 61.5202 84.9846 61.3602 84.9646C61.2002 84.9446 61.0402 84.9346 60.8802 84.9346C60.4202 84.9346 60.0152 84.9846 59.6652 85.0846C59.3152 85.1746 59.0252 85.2846 58.7952 85.4146ZM57.5952 87.0946L58.7952 87.2746V91.0246C58.7452 91.0446 58.6702 91.0646 58.5702 91.0846C58.4702 91.1146 58.3602 91.1296 58.2402 91.1296C58.0302 91.1296 57.8702 91.0896 57.7602 91.0096C57.6502 90.9196 57.5952 90.7796 57.5952 90.5896V87.0946ZM69.2807 91.2496C68.8507 91.2496 68.4457 91.1846 68.0657 91.0546C67.6957 90.9346 67.4257 90.7996 67.2557 90.6496V89.5396C67.4557 89.7296 67.7057 89.8996 68.0057 90.0496C68.3157 90.1896 68.6857 90.2596 69.1157 90.2596C69.8157 90.2596 70.3757 90.0496 70.7957 89.6296C71.2257 89.1996 71.4407 88.5146 71.4407 87.5746C71.4407 86.9146 71.3307 86.3946 71.1107 86.0146C70.9007 85.6246 70.6157 85.3446 70.2557 85.1746C69.9057 85.0046 69.5257 84.9196 69.1157 84.9196C68.7557 84.9196 68.4507 84.9646 68.2007 85.0546C67.9507 85.1446 67.7257 85.2446 67.5257 85.3546V90.3346H66.3257V85.3846C66.3257 85.1846 66.3607 85.0246 66.4307 84.9046C66.5007 84.7846 66.6457 84.6596 66.8657 84.5296C67.1357 84.3796 67.4557 84.2446 67.8257 84.1246C68.2057 83.9946 68.6357 83.9296 69.1157 83.9296C69.7757 83.9296 70.3707 84.0596 70.9007 84.3196C71.4407 84.5696 71.8657 84.9646 72.1757 85.5046C72.4957 86.0346 72.6557 86.7246 72.6557 87.5746C72.6557 88.3946 72.5107 89.0796 72.2207 89.6296C71.9407 90.1696 71.5457 90.5746 71.0357 90.8446C70.5257 91.1146 69.9407 91.2496 69.2807 91.2496ZM67.5257 89.9296V93.7546C67.4757 93.7746 67.4007 93.7946 67.3007 93.8146C67.2007 93.8446 67.0907 93.8596 66.9707 93.8596C66.7607 93.8596 66.6007 93.8146 66.4907 93.7246C66.3807 93.6346 66.3257 93.4946 66.3257 93.3046V89.8996L67.5257 89.9296ZM74.9492 88.3546L74.8892 87.4096L79.4192 86.7946C79.3792 86.2446 79.1892 85.7946 78.8492 85.4446C78.5092 85.0846 78.0392 84.9046 77.4392 84.9046C76.8192 84.9046 76.3042 85.1296 75.8942 85.5796C75.4942 86.0196 75.2942 86.6546 75.2942 87.4846V87.8146C75.3642 88.6146 75.6242 89.2246 76.0742 89.6446C76.5342 90.0546 77.1592 90.2596 77.9492 90.2596C78.3692 90.2596 78.7492 90.1896 79.0892 90.0496C79.4292 89.9096 79.6992 89.7596 79.8992 89.5996C80.0092 89.6696 80.0942 89.7546 80.1542 89.8546C80.2242 89.9446 80.2592 90.0496 80.2592 90.1696C80.2592 90.3596 80.1492 90.5396 79.9292 90.7096C79.7192 90.8696 79.4342 90.9996 79.0742 91.0996C78.7242 91.1996 78.3292 91.2496 77.8892 91.2496C77.1192 91.2496 76.4492 91.1096 75.8792 90.8296C75.3192 90.5496 74.8842 90.1346 74.5742 89.5846C74.2742 89.0246 74.1242 88.3446 74.1242 87.5446C74.1242 86.9746 74.2042 86.4696 74.3642 86.0296C74.5342 85.5796 74.7642 85.1996 75.0542 84.8896C75.3542 84.5796 75.7092 84.3446 76.1192 84.1846C76.5292 84.0146 76.9742 83.9296 77.4542 83.9296C78.0642 83.9296 78.5992 84.0596 79.0592 84.3196C79.5292 84.5796 79.8942 84.9446 80.1542 85.4146C80.4242 85.8746 80.5592 86.4046 80.5592 87.0046C80.5592 87.2246 80.5092 87.3846 80.4092 87.4846C80.3092 87.5746 80.1692 87.6296 79.9892 87.6496L74.9492 88.3546ZM83.4925 85.4146V87.7846H82.2925V85.5046C82.2925 85.2746 82.3325 85.0946 82.4125 84.9646C82.5025 84.8246 82.6475 84.6896 82.8475 84.5596C83.1075 84.3896 83.4625 84.2446 83.9125 84.1246C84.3625 83.9946 84.8625 83.9296 85.4125 83.9296C86.2125 83.9296 86.6125 84.1296 86.6125 84.5296C86.6125 84.6296 86.5975 84.7246 86.5675 84.8146C86.5375 84.8946 86.4975 84.9646 86.4475 85.0246C86.3475 85.0046 86.2175 84.9846 86.0575 84.9646C85.8975 84.9446 85.7375 84.9346 85.5775 84.9346C85.1175 84.9346 84.7125 84.9846 84.3625 85.0846C84.0125 85.1746 83.7225 85.2846 83.4925 85.4146ZM82.2925 87.0946L83.4925 87.2746V91.0246C83.4425 91.0446 83.3675 91.0646 83.2675 91.0846C83.1675 91.1146 83.0575 91.1296 82.9375 91.1296C82.7275 91.1296 82.5675 91.0896 82.4575 91.0096C82.3475 90.9196 82.2925 90.7796 82.2925 90.5896V87.0946ZM89.025 85.4896V84.5146H92.205C92.235 84.5546 92.265 84.6196 92.295 84.7096C92.325 84.7896 92.34 84.8846 92.34 84.9946C92.34 85.1546 92.3 85.2796 92.22 85.3696C92.14 85.4496 92.025 85.4896 91.875 85.4896H89.025ZM89.235 83.5696V85.3246H88.05V83.5096C88.05 82.9196 88.155 82.4446 88.365 82.0846C88.585 81.7146 88.895 81.4446 89.295 81.2746C89.705 81.0946 90.19 81.0046 90.75 81.0046C91.32 81.0046 91.765 81.0796 92.085 81.2296C92.415 81.3796 92.58 81.5646 92.58 81.7846C92.58 81.8946 92.555 81.9946 92.505 82.0846C92.465 82.1746 92.405 82.2596 92.325 82.3396C92.145 82.2396 91.92 82.1596 91.65 82.0996C91.38 82.0296 91.12 81.9946 90.87 81.9946C90.26 81.9946 89.835 82.1196 89.595 82.3696C89.355 82.6196 89.235 83.0196 89.235 83.5696ZM88.05 84.6646H89.25V91.0246C89.2 91.0446 89.125 91.0646 89.025 91.0846C88.925 91.1146 88.815 91.1296 88.695 91.1296C88.485 91.1296 88.325 91.0896 88.215 91.0096C88.105 90.9196 88.05 90.7796 88.05 90.5896V84.6646ZM93.9 81.9346C93.9 81.7246 93.975 81.5496 94.125 81.4096C94.275 81.2596 94.46 81.1846 94.68 81.1846C94.91 81.1846 95.095 81.2596 95.235 81.4096C95.375 81.5496 95.445 81.7246 95.445 81.9346C95.445 82.1446 95.375 82.3246 95.235 82.4746C95.095 82.6146 94.91 82.6846 94.68 82.6846C94.46 82.6846 94.275 82.6146 94.125 82.4746C93.975 82.3246 93.9 82.1446 93.9 81.9346ZM94.08 87.0946H95.28V91.0246C95.23 91.0446 95.155 91.0646 95.055 91.0846C94.955 91.1146 94.845 91.1296 94.725 91.1296C94.515 91.1296 94.355 91.0896 94.245 91.0096C94.135 90.9196 94.08 90.7796 94.08 90.5896V87.0946ZM95.28 87.6796H94.08V84.1546C94.13 84.1346 94.205 84.1146 94.305 84.0946C94.415 84.0646 94.53 84.0496 94.65 84.0496C94.86 84.0496 95.015 84.0946 95.115 84.1846C95.225 84.2646 95.28 84.4046 95.28 84.6046V87.6796ZM97.764 87.0946L98.964 87.2746V91.0246C98.914 91.0446 98.839 91.0646 98.739 91.0846C98.639 91.1146 98.529 91.1296 98.409 91.1296C98.199 91.1296 98.039 91.0896 97.929 91.0096C97.819 90.9196 97.764 90.7796 97.764 90.5896V87.0946ZM98.964 87.8446L97.764 87.6796V81.3346C97.814 81.3146 97.889 81.2946 97.989 81.2746C98.099 81.2446 98.209 81.2296 98.319 81.2296C98.539 81.2296 98.699 81.2746 98.799 81.3646C98.909 81.4446 98.964 81.5796 98.964 81.7696V87.8446Z" fill="#741FFF"/>
<path d="M81.5999 69.0364C81.5999 65.7772 81.5999 64.1477 81.1607 62.8216C80.1718 59.8361 77.6208 57.4998 74.3608 56.5942C72.913 56.1919 71.1336 56.1919 67.5749 56.1919H54.8249C51.2662 56.1919 49.4869 56.1919 48.039 56.5942C44.7791 57.4998 42.228 59.8361 41.2391 62.8216C40.7999 64.1477 40.7999 65.7772 40.7999 69.0364M72.6749 37.5091C72.6749 43.3131 67.5374 48.0182 61.1999 48.0182C54.8625 48.0182 49.7249 43.3131 49.7249 37.5091C49.7249 31.7051 54.8625 27 61.1999 27C67.5374 27 72.6749 31.7051 72.6749 37.5091Z" stroke="#741FFF" stroke-width="3" stroke-linecap="round" stroke-linejoin="round"/>
</svg>
