<svg width="100" height="100" viewBox="0 0 100 100" fill="none" xmlns="http://www.w3.org/2000/svg">
<path d="M42.2972 74.92C42.2972 76.3067 42.0439 77.4733 41.5372 78.42C41.0305 79.3533 40.3372 80.06 39.4572 80.54C38.5905 81.02 37.6039 81.26 36.4972 81.26C35.4039 81.26 34.4172 81.02 33.5372 80.54C32.6572 80.06 31.9639 79.3533 31.4572 78.42C30.9505 77.4733 30.6972 76.3067 30.6972 74.92C30.6972 73.5333 30.9572 72.3733 31.4772 71.44C31.9972 70.4933 32.6905 69.78 33.5572 69.3C34.4372 68.82 35.4172 68.58 36.4972 68.58C37.5905 68.58 38.5705 68.82 39.4372 69.3C40.3172 69.78 41.0105 70.4933 41.5172 71.44C42.0372 72.3733 42.2972 73.5333 42.2972 74.92ZM40.6372 74.92C40.6372 73.3333 40.2572 72.1133 39.4972 71.26C38.7505 70.3933 37.7505 69.96 36.4972 69.96C35.2572 69.96 34.2572 70.3933 33.4972 71.26C32.7505 72.1133 32.3772 73.3333 32.3772 74.92C32.3772 76.5067 32.7505 77.7333 33.4972 78.6C34.2439 79.4533 35.2439 79.88 36.4972 79.88C37.7639 79.88 38.7705 79.4533 39.5172 78.6C40.2639 77.7333 40.6372 76.5067 40.6372 74.92ZM45.1863 70.22L46.5463 70.1C46.5996 70.5133 46.6463 71 46.6863 71.56C46.7263 72.12 46.7529 72.7 46.7663 73.3C46.7929 73.8867 46.8063 74.4467 46.8063 74.98V80.96C46.7396 80.9867 46.6329 81.0133 46.4863 81.04C46.3529 81.08 46.2129 81.1 46.0663 81.1C45.7729 81.1 45.5529 81.0467 45.4063 80.94C45.2596 80.82 45.1863 80.6333 45.1863 80.38V70.22ZM54.8263 79.62L53.4463 79.74C53.3129 78.62 53.2329 77.48 53.2063 76.32C53.1929 75.1467 53.1863 74.0133 53.1863 72.92V68.88C53.2663 68.8533 53.3729 68.8267 53.5062 68.8C53.6396 68.76 53.7863 68.74 53.9463 68.74C54.2396 68.74 54.4596 68.8 54.6063 68.92C54.7529 69.0267 54.8263 69.2067 54.8263 69.46V79.62ZM54.8263 79.02V80.78C54.7063 80.8733 54.5529 80.9533 54.3663 81.02C54.1796 81.0867 53.9729 81.12 53.7463 81.12C53.4263 81.12 53.1529 81.06 52.9263 80.94C52.6996 80.8067 52.4929 80.5733 52.3063 80.24L48.5063 73.84C48.3063 73.48 48.0863 73.0867 47.8463 72.66C47.6063 72.22 47.3796 71.8067 47.1663 71.42C46.9529 71.02 46.7863 70.6933 46.6663 70.44L45.1863 70.82V69.08C45.2929 68.9733 45.4396 68.8867 45.6263 68.82C45.8263 68.7533 46.0396 68.72 46.2663 68.72C46.5863 68.72 46.8596 68.7867 47.0863 68.92C47.3129 69.04 47.5196 69.2667 47.7063 69.6L51.5263 76C51.7396 76.36 51.9596 76.76 52.1863 77.2C52.4263 77.6267 52.6463 78.04 52.8463 78.44C53.0463 78.8267 53.2063 79.1467 53.3263 79.4L54.8263 79.02ZM68.0094 75.26V79.6C68.0094 79.84 67.936 80.0467 67.7894 80.22C67.656 80.38 67.4494 80.5267 67.1694 80.66C66.836 80.8333 66.376 80.9733 65.7894 81.08C65.2027 81.2 64.6094 81.26 64.0094 81.26C62.7694 81.26 61.6694 81.0333 60.7094 80.58C59.7627 80.1267 59.0227 79.4333 58.4894 78.5C57.956 77.5667 57.6894 76.38 57.6894 74.94C57.6894 73.5133 57.9627 72.3333 58.5094 71.4C59.0694 70.4533 59.8094 69.7467 60.7294 69.28C61.6494 68.8133 62.656 68.58 63.7494 68.58C64.5094 68.58 65.176 68.66 65.7494 68.82C66.3227 68.98 66.7694 69.18 67.0894 69.42C67.4094 69.66 67.5694 69.9067 67.5694 70.16C67.5694 70.3333 67.516 70.4933 67.4094 70.64C67.3027 70.7733 67.176 70.8733 67.0294 70.94C66.6694 70.7 66.2427 70.48 65.7494 70.28C65.256 70.0667 64.6227 69.96 63.8494 69.96C63.0094 69.96 62.2494 70.1467 61.5694 70.52C60.8894 70.8933 60.3494 71.4533 59.9494 72.2C59.5627 72.9333 59.3694 73.8467 59.3694 74.94C59.3694 76.0867 59.5694 77.0267 59.9694 77.76C60.3827 78.48 60.9427 79.0133 61.6494 79.36C62.356 79.7067 63.1494 79.88 64.0294 79.88C64.5094 79.88 64.9627 79.84 65.3894 79.76C65.816 79.68 66.1494 79.58 66.3894 79.46V75.78H63.3694C63.3294 75.7133 63.2894 75.6267 63.2494 75.52C63.2094 75.4 63.1894 75.2733 63.1894 75.14C63.1894 74.9133 63.2427 74.74 63.3494 74.62C63.456 74.4867 63.6094 74.42 63.8094 74.42H67.1494C67.3894 74.42 67.5894 74.5 67.7494 74.66C67.9227 74.8067 68.0094 75.0067 68.0094 75.26Z" fill="#741FFF"/>
<rect x="1" y="1" width="98" height="98" rx="9" stroke="#741FFF" stroke-opacity="0.4" stroke-width="2"/>
<path d="M56.25 56.75V45.5C56.25 44.3332 56.25 43.7498 56.0229 43.3042C55.8232 42.9122 55.5045 42.5935 55.1125 42.3937C54.6668 42.1667 54.0834 42.1667 52.9167 42.1667H47.0833C45.9166 42.1667 45.3332 42.1667 44.8875 42.3937C44.4955 42.5935 44.1768 42.9122 43.9771 43.3042C43.75 43.7498 43.75 44.3332 43.75 45.5V56.75M31.25 27.5833C31.25 31.0351 34.0482 33.8333 37.5 33.8333C40.9518 33.8333 43.75 31.0351 43.75 27.5833C43.75 31.0351 46.5482 33.8333 50 33.8333C53.4518 33.8333 56.25 31.0351 56.25 27.5833C56.25 31.0351 59.0482 33.8333 62.5 33.8333C65.9518 33.8333 68.75 31.0351 68.75 27.5833M37.9167 56.75H62.0833C64.4169 56.75 65.5837 56.75 66.475 56.2959C67.259 55.8964 67.8964 55.259 68.2959 54.475C68.75 53.5837 68.75 52.4169 68.75 50.0833V25.9167C68.75 23.5831 68.75 22.4163 68.2959 21.525C67.8964 20.741 67.259 20.1036 66.475 19.7041C65.5837 19.25 64.4169 19.25 62.0833 19.25H37.9167C35.5831 19.25 34.4163 19.25 33.525 19.7041C32.741 20.1036 32.1036 20.741 31.7041 21.525C31.25 22.4163 31.25 23.5831 31.25 25.9167V50.0833C31.25 52.4169 31.25 53.5837 31.7041 54.475C32.1036 55.259 32.741 55.8964 33.525 56.2959C34.4163 56.75 35.5831 56.75 37.9167 56.75Z" stroke="#741FFF" stroke-width="3" stroke-linecap="round" stroke-linejoin="round"/>
</svg>
