<svg width="100" height="100" viewBox="0 0 100 100" fill="none" xmlns="http://www.w3.org/2000/svg">
<path d="M23.1461 74.3H25.0861C26.1528 74.3 26.9794 74.08 27.5661 73.64C28.1528 73.1867 28.4461 72.5067 28.4461 71.6C28.4461 70.6933 28.1594 70.0333 27.5861 69.62C27.0261 69.1933 26.2194 68.98 25.1661 68.98C24.8061 68.98 24.4461 69 24.0861 69.04C23.7394 69.0667 23.4261 69.1067 23.1461 69.16V74.3ZM25.1861 75.66H21.5261V68.72C21.5261 68.5067 21.5794 68.3467 21.6861 68.24C21.8061 68.12 21.9728 68.0267 22.1861 67.96C22.5728 67.84 23.0394 67.7533 23.5861 67.7C24.1461 67.6467 24.6861 67.62 25.2061 67.62C26.8994 67.62 28.1328 67.98 28.9061 68.7C29.6928 69.4067 30.0861 70.3667 30.0861 71.58C30.0861 72.4067 29.9061 73.1267 29.5461 73.74C29.1994 74.3533 28.6661 74.8267 27.9461 75.16C27.2261 75.4933 26.3061 75.66 25.1861 75.66ZM21.5261 74.88H23.1661V79.96C23.0861 79.9867 22.9794 80.0133 22.8461 80.04C22.7128 80.08 22.5661 80.1 22.4061 80.1C22.1128 80.1 21.8928 80.04 21.7461 79.92C21.5994 79.8 21.5261 79.6133 21.5261 79.36V74.88ZM32.7831 76.4L32.7031 75.14L38.7431 74.32C38.6898 73.5867 38.4365 72.9867 37.9831 72.52C37.5298 72.04 36.9031 71.8 36.1031 71.8C35.2765 71.8 34.5898 72.1 34.0431 72.7C33.5098 73.2867 33.2431 74.1333 33.2431 75.24V75.68C33.3365 76.7467 33.6831 77.56 34.2831 78.12C34.8965 78.6667 35.7298 78.94 36.7831 78.94C37.3431 78.94 37.8498 78.8467 38.3031 78.66C38.7565 78.4733 39.1165 78.2733 39.3831 78.06C39.5298 78.1533 39.6431 78.2667 39.7231 78.4C39.8165 78.52 39.8631 78.66 39.8631 78.82C39.8631 79.0733 39.7165 79.3133 39.4231 79.54C39.1431 79.7533 38.7631 79.9267 38.2831 80.06C37.8165 80.1933 37.2898 80.26 36.7031 80.26C35.6765 80.26 34.7831 80.0733 34.0231 79.7C33.2765 79.3267 32.6965 78.7733 32.2831 78.04C31.8831 77.2933 31.6831 76.3867 31.6831 75.32C31.6831 74.56 31.7898 73.8867 32.0031 73.3C32.2298 72.7 32.5365 72.1933 32.9231 71.78C33.3231 71.3667 33.7965 71.0533 34.3431 70.84C34.8898 70.6133 35.4831 70.5 36.1231 70.5C36.9365 70.5 37.6498 70.6733 38.2631 71.02C38.8898 71.3667 39.3765 71.8533 39.7231 72.48C40.0831 73.0933 40.2631 73.8 40.2631 74.6C40.2631 74.8933 40.1965 75.1067 40.0631 75.24C39.9298 75.36 39.7431 75.4333 39.5031 75.46L32.7831 76.4ZM49.2114 77.54C49.2114 78.3933 48.8981 79.06 48.2714 79.54C47.6447 80.02 46.7381 80.26 45.5514 80.26C44.5381 80.26 43.7114 80.1067 43.0714 79.8C42.4314 79.48 42.1114 79.1333 42.1114 78.76C42.1114 78.6 42.1514 78.4467 42.2314 78.3C42.3247 78.14 42.4581 78.0133 42.6314 77.92C42.9914 78.1733 43.4114 78.4067 43.8914 78.62C44.3714 78.8333 44.9181 78.94 45.5314 78.94C46.9181 78.94 47.6114 78.4733 47.6114 77.54C47.6114 77.1533 47.4914 76.84 47.2514 76.6C47.0247 76.3467 46.6847 76.1667 46.2314 76.06L44.5714 75.62C43.7581 75.42 43.1647 75.1133 42.7914 74.7C42.4181 74.2733 42.2314 73.7467 42.2314 73.12C42.2314 72.4133 42.5181 71.8 43.0914 71.28C43.6647 70.76 44.5381 70.5 45.7114 70.5C46.3381 70.5 46.8847 70.5667 47.3514 70.7C47.8181 70.82 48.1781 70.9867 48.4314 71.2C48.6981 71.4 48.8314 71.62 48.8314 71.86C48.8314 72.0333 48.7847 72.1867 48.6914 72.32C48.6114 72.4533 48.4981 72.5533 48.3514 72.62C48.1914 72.5133 47.9847 72.4 47.7314 72.28C47.4914 72.1467 47.2047 72.04 46.8714 71.96C46.5381 71.8667 46.1714 71.82 45.7714 71.82C45.1847 71.82 44.7114 71.9333 44.3514 72.16C43.9914 72.3867 43.8114 72.7067 43.8114 73.12C43.8114 73.4133 43.9114 73.6733 44.1114 73.9C44.3247 74.1133 44.6581 74.2733 45.1114 74.38L46.4914 74.72C47.3981 74.9333 48.0781 75.2733 48.5314 75.74C48.9847 76.1933 49.2114 76.7933 49.2114 77.54ZM58.1567 77.54C58.1567 78.3933 57.8434 79.06 57.2167 79.54C56.5901 80.02 55.6834 80.26 54.4967 80.26C53.4834 80.26 52.6567 80.1067 52.0167 79.8C51.3767 79.48 51.0567 79.1333 51.0567 78.76C51.0567 78.6 51.0967 78.4467 51.1767 78.3C51.2701 78.14 51.4034 78.0133 51.5767 77.92C51.9367 78.1733 52.3567 78.4067 52.8367 78.62C53.3167 78.8333 53.8634 78.94 54.4767 78.94C55.8634 78.94 56.5567 78.4733 56.5567 77.54C56.5567 77.1533 56.4367 76.84 56.1967 76.6C55.9701 76.3467 55.6301 76.1667 55.1767 76.06L53.5167 75.62C52.7034 75.42 52.1101 75.1133 51.7367 74.7C51.3634 74.2733 51.1767 73.7467 51.1767 73.12C51.1767 72.4133 51.4634 71.8 52.0367 71.28C52.6101 70.76 53.4834 70.5 54.6567 70.5C55.2834 70.5 55.8301 70.5667 56.2967 70.7C56.7634 70.82 57.1234 70.9867 57.3767 71.2C57.6434 71.4 57.7767 71.62 57.7767 71.86C57.7767 72.0333 57.7301 72.1867 57.6367 72.32C57.5567 72.4533 57.4434 72.5533 57.2967 72.62C57.1367 72.5133 56.9301 72.4 56.6767 72.28C56.4367 72.1467 56.1501 72.04 55.8167 71.96C55.4834 71.8667 55.1167 71.82 54.7167 71.82C54.1301 71.82 53.6567 71.9333 53.2967 72.16C52.9367 72.3867 52.7567 72.7067 52.7567 73.12C52.7567 73.4133 52.8567 73.6733 53.0567 73.9C53.2701 74.1133 53.6034 74.2733 54.0567 74.38L55.4367 74.72C56.3434 74.9333 57.0234 75.2733 57.4767 75.74C57.9301 76.1933 58.1567 76.7933 58.1567 77.54ZM69.2597 75.38C69.2597 76.3667 69.073 77.2267 68.6997 77.96C68.3264 78.6933 67.7997 79.26 67.1197 79.66C66.4397 80.06 65.6397 80.26 64.7197 80.26C63.7997 80.26 62.993 80.06 62.2997 79.66C61.6197 79.26 61.093 78.6933 60.7197 77.96C60.3464 77.2267 60.1597 76.3667 60.1597 75.38C60.1597 74.38 60.3464 73.52 60.7197 72.8C61.1064 72.0667 61.6397 71.5 62.3197 71.1C63.013 70.7 63.813 70.5 64.7197 70.5C65.6264 70.5 66.4197 70.7 67.0997 71.1C67.7797 71.5 68.3064 72.0667 68.6797 72.8C69.0664 73.52 69.2597 74.38 69.2597 75.38ZM64.7197 71.82C63.8264 71.82 63.113 72.14 62.5797 72.78C62.0597 73.4067 61.7997 74.2733 61.7997 75.38C61.7997 76.5 62.053 77.3733 62.5597 78C63.0797 78.6267 63.7997 78.94 64.7197 78.94C65.6264 78.94 66.333 78.6267 66.8397 78C67.3597 77.36 67.6197 76.4867 67.6197 75.38C67.6197 74.2733 67.3597 73.4067 66.8397 72.78C66.333 72.14 65.6264 71.82 64.7197 71.82ZM75.0734 78.96C75.6334 78.96 76.0934 78.9067 76.4534 78.8C76.8268 78.68 77.0934 78.5667 77.2534 78.46V75.56L74.7734 75.82C74.0801 75.8733 73.5668 76.0267 73.2334 76.28C72.9001 76.5333 72.7334 76.9 72.7334 77.38C72.7334 77.8733 72.9268 78.26 73.3134 78.54C73.7134 78.82 74.3001 78.96 75.0734 78.96ZM75.0534 70.5C76.2134 70.5 77.1334 70.76 77.8134 71.28C78.4934 71.8 78.8334 72.62 78.8334 73.74V78.48C78.8334 78.7733 78.7734 79 78.6534 79.16C78.5468 79.3067 78.3801 79.4467 78.1534 79.58C77.8334 79.7533 77.4068 79.9133 76.8734 80.06C76.3401 80.2067 75.7401 80.28 75.0734 80.28C73.8201 80.28 72.8468 80.0333 72.1534 79.54C71.4734 79.0467 71.1334 78.3333 71.1334 77.4C71.1334 76.5333 71.4201 75.8733 71.9934 75.42C72.5801 74.9533 73.3868 74.6733 74.4134 74.58L77.2534 74.3V73.74C77.2534 73.0733 77.0534 72.5867 76.6534 72.28C76.2534 71.9733 75.7134 71.82 75.0334 71.82C74.4868 71.82 73.9601 71.9 73.4534 72.06C72.9601 72.22 72.5201 72.4 72.1334 72.6C72.0268 72.5067 71.9268 72.4 71.8334 72.28C71.7534 72.1467 71.7134 72.0133 71.7134 71.88C71.7134 71.5333 71.9068 71.2667 72.2934 71.08C72.6534 70.8933 73.0668 70.7533 73.5334 70.66C74.0134 70.5533 74.5201 70.5 75.0534 70.5Z" fill="#741FFF"/>
<rect x="1" y="1" width="98" height="98" rx="9" stroke="#741FFF" stroke-opacity="0.4" stroke-width="2"/>
<path d="M66.6667 58.75C66.6667 55.8426 66.6667 54.3889 66.3078 53.2059C65.4999 50.5426 63.4157 48.4584 60.7524 47.6505C59.5695 47.2917 58.1158 47.2917 55.2083 47.2917H44.7917C41.8842 47.2917 40.4305 47.2917 39.2476 47.6505C36.5843 48.4584 34.5001 50.5426 33.6922 53.2059C33.3333 54.3889 33.3333 55.8426 33.3333 58.75M59.375 30.625C59.375 35.8027 55.1777 40 50 40C44.8223 40 40.625 35.8027 40.625 30.625C40.625 25.4473 44.8223 21.25 50 21.25C55.1777 21.25 59.375 25.4473 59.375 30.625Z" stroke="#741FFF" stroke-width="3" stroke-linecap="round" stroke-linejoin="round"/>
</svg>
