<svg width="124" height="124" viewBox="0 0 124 124" fill="none" xmlns="http://www.w3.org/2000/svg">
<rect x="1" y="1" width="121.636" height="121.636" rx="9" stroke="#741FFF" stroke-width="2"/>
<path d="M39.0412 83.8586V87.1136C39.0412 87.2936 38.9862 87.4486 38.8762 87.5786C38.7762 87.6986 38.6212 87.8086 38.4112 87.9086C38.1612 88.0386 37.8162 88.1436 37.3762 88.2236C36.9362 88.3136 36.4912 88.3586 36.0412 88.3586C35.1112 88.3586 34.2862 88.1886 33.5662 87.8486C32.8562 87.5086 32.3012 86.9886 31.9012 86.2886C31.5012 85.5886 31.3012 84.6986 31.3012 83.6186C31.3012 82.5486 31.5062 81.6636 31.9162 80.9636C32.3362 80.2536 32.8912 79.7236 33.5812 79.3736C34.2712 79.0236 35.0262 78.8486 35.8462 78.8486C36.4162 78.8486 36.9162 78.9086 37.3462 79.0286C37.7762 79.1486 38.1112 79.2986 38.3512 79.4786C38.5912 79.6586 38.7112 79.8436 38.7112 80.0336C38.7112 80.1636 38.6712 80.2836 38.5912 80.3936C38.5112 80.4936 38.4162 80.5686 38.3062 80.6186C38.0362 80.4386 37.7162 80.2736 37.3462 80.1236C36.9762 79.9636 36.5012 79.8836 35.9212 79.8836C35.2912 79.8836 34.7212 80.0236 34.2112 80.3036C33.7012 80.5836 33.2962 81.0036 32.9962 81.5636C32.7062 82.1136 32.5612 82.7986 32.5612 83.6186C32.5612 84.4786 32.7112 85.1836 33.0112 85.7336C33.3212 86.2736 33.7412 86.6736 34.2712 86.9336C34.8012 87.1936 35.3962 87.3236 36.0562 87.3236C36.4162 87.3236 36.7562 87.2936 37.0762 87.2336C37.3962 87.1736 37.6462 87.0986 37.8262 87.0086V84.2486H35.5612C35.5312 84.1986 35.5012 84.1336 35.4712 84.0536C35.4412 83.9636 35.4262 83.8686 35.4262 83.7686C35.4262 83.5986 35.4662 83.4686 35.5462 83.3786C35.6262 83.2786 35.7412 83.2286 35.8912 83.2286H38.3962C38.5762 83.2286 38.7262 83.2886 38.8462 83.4086C38.9762 83.5186 39.0412 83.6686 39.0412 83.8586ZM41.6899 85.4636L41.6299 84.5186L46.1599 83.9036C46.1199 83.3536 45.9299 82.9036 45.5899 82.5536C45.2499 82.1936 44.7799 82.0136 44.1799 82.0136C43.5599 82.0136 43.0449 82.2386 42.6349 82.6886C42.2349 83.1286 42.0349 83.7636 42.0349 84.5936V84.9236C42.1049 85.7236 42.3649 86.3336 42.8149 86.7536C43.2749 87.1636 43.8999 87.3686 44.6899 87.3686C45.1099 87.3686 45.4899 87.2986 45.8299 87.1586C46.1699 87.0186 46.4399 86.8686 46.6399 86.7086C46.7499 86.7786 46.8349 86.8636 46.8949 86.9636C46.9649 87.0536 46.9999 87.1586 46.9999 87.2786C46.9999 87.4686 46.8899 87.6486 46.6699 87.8186C46.4599 87.9786 46.1749 88.1086 45.8149 88.2086C45.4649 88.3086 45.0699 88.3586 44.6299 88.3586C43.8599 88.3586 43.1899 88.2186 42.6199 87.9386C42.0599 87.6586 41.6249 87.2436 41.3149 86.6936C41.0149 86.1336 40.8649 85.4536 40.8649 84.6536C40.8649 84.0836 40.9449 83.5786 41.1049 83.1386C41.2749 82.6886 41.5049 82.3086 41.7949 81.9986C42.0949 81.6886 42.4499 81.4536 42.8599 81.2936C43.2699 81.1236 43.7149 81.0386 44.1949 81.0386C44.8049 81.0386 45.3399 81.1686 45.7999 81.4286C46.2699 81.6886 46.6349 82.0536 46.8949 82.5236C47.1649 82.9836 47.2999 83.5136 47.2999 84.1136C47.2999 84.3336 47.2499 84.4936 47.1499 84.5936C47.0499 84.6836 46.9099 84.7386 46.7299 84.7586L41.6899 85.4636ZM50.2332 82.5236V84.8936H49.0332V82.6136C49.0332 82.3836 49.0732 82.2036 49.1532 82.0736C49.2432 81.9336 49.3882 81.7986 49.5882 81.6686C49.8482 81.4986 50.2032 81.3536 50.6532 81.2336C51.1032 81.1036 51.6032 81.0386 52.1532 81.0386C52.9532 81.0386 53.3532 81.2386 53.3532 81.6386C53.3532 81.7386 53.3382 81.8336 53.3082 81.9236C53.2782 82.0036 53.2382 82.0736 53.1882 82.1336C53.0882 82.1136 52.9582 82.0936 52.7982 82.0736C52.6382 82.0536 52.4782 82.0436 52.3182 82.0436C51.8582 82.0436 51.4532 82.0936 51.1032 82.1936C50.7532 82.2836 50.4632 82.3936 50.2332 82.5236ZM49.0332 84.2036L50.2332 84.3836V88.1336C50.1832 88.1536 50.1082 88.1736 50.0082 88.1936C49.9082 88.2236 49.7982 88.2386 49.6782 88.2386C49.4682 88.2386 49.3082 88.1986 49.1982 88.1186C49.0882 88.0286 49.0332 87.8886 49.0332 87.6986V84.2036ZM55.0493 85.4636L54.9893 84.5186L59.5193 83.9036C59.4793 83.3536 59.2893 82.9036 58.9493 82.5536C58.6093 82.1936 58.1393 82.0136 57.5393 82.0136C56.9193 82.0136 56.4043 82.2386 55.9943 82.6886C55.5943 83.1286 55.3943 83.7636 55.3943 84.5936V84.9236C55.4643 85.7236 55.7243 86.3336 56.1743 86.7536C56.6343 87.1636 57.2593 87.3686 58.0493 87.3686C58.4693 87.3686 58.8493 87.2986 59.1893 87.1586C59.5293 87.0186 59.7993 86.8686 59.9993 86.7086C60.1093 86.7786 60.1943 86.8636 60.2543 86.9636C60.3243 87.0536 60.3593 87.1586 60.3593 87.2786C60.3593 87.4686 60.2493 87.6486 60.0293 87.8186C59.8193 87.9786 59.5343 88.1086 59.1743 88.2086C58.8243 88.3086 58.4293 88.3586 57.9893 88.3586C57.2193 88.3586 56.5493 88.2186 55.9793 87.9386C55.4193 87.6586 54.9843 87.2436 54.6743 86.6936C54.3743 86.1336 54.2243 85.4536 54.2243 84.6536C54.2243 84.0836 54.3043 83.5786 54.4643 83.1386C54.6343 82.6886 54.8643 82.3086 55.1543 81.9986C55.4543 81.6886 55.8093 81.4536 56.2193 81.2936C56.6293 81.1236 57.0743 81.0386 57.5543 81.0386C58.1643 81.0386 58.6993 81.1686 59.1593 81.4286C59.6293 81.6886 59.9943 82.0536 60.2543 82.5236C60.5243 82.9836 60.6593 83.5136 60.6593 84.1136C60.6593 84.3336 60.6093 84.4936 60.5093 84.5936C60.4093 84.6836 60.2693 84.7386 60.0893 84.7586L55.0493 85.4636ZM58.5443 80.0486L57.5693 78.8936C57.3393 79.1736 57.1093 79.4336 56.8793 79.6736C56.6593 79.9036 56.4493 80.1336 56.2493 80.3636C56.0693 80.3436 55.9193 80.2886 55.7993 80.1986C55.6793 80.1086 55.6193 79.9986 55.6193 79.8686C55.6193 79.7586 55.6493 79.6636 55.7093 79.5836C55.7793 79.4936 55.8593 79.3986 55.9493 79.2986L56.8643 78.3086C56.9943 78.1986 57.1093 78.1136 57.2093 78.0536C57.3193 77.9936 57.4393 77.9636 57.5693 77.9636C57.7293 77.9636 57.8593 77.9936 57.9593 78.0536C58.0693 78.1136 58.1743 78.2036 58.2743 78.3236L59.5343 79.8236C59.5343 79.9536 59.4943 80.0736 59.4143 80.1836C59.3443 80.2836 59.2293 80.3336 59.0693 80.3336C58.9493 80.3336 58.8493 80.3086 58.7693 80.2586C58.6993 80.1986 58.6243 80.1286 58.5443 80.0486ZM68.3926 83.5886V85.1186H67.1926V83.6486C67.1926 83.0886 67.0326 82.6786 66.7126 82.4186C66.4026 82.1586 65.9826 82.0286 65.4526 82.0286C65.0526 82.0286 64.6976 82.0786 64.3876 82.1786C64.0776 82.2786 63.8126 82.3936 63.5926 82.5236V85.1186H62.3926V82.5836C62.3926 82.3736 62.4326 82.2036 62.5126 82.0736C62.6026 81.9336 62.7526 81.7986 62.9626 81.6686C63.2226 81.5186 63.5676 81.3786 63.9976 81.2486C64.4276 81.1086 64.9126 81.0386 65.4526 81.0386C66.3626 81.0386 67.0776 81.2486 67.5976 81.6686C68.1276 82.0786 68.3926 82.7186 68.3926 83.5886ZM62.3926 84.2936H63.5926V88.1336C63.5426 88.1536 63.4676 88.1736 63.3676 88.1936C63.2676 88.2236 63.1576 88.2386 63.0376 88.2386C62.8276 88.2386 62.6676 88.1986 62.5576 88.1186C62.4476 88.0286 62.3926 87.8886 62.3926 87.6986V84.2936ZM67.1926 84.2936H68.3926V88.1336C68.3426 88.1536 68.2626 88.1736 68.1526 88.1936C68.0526 88.2236 67.9476 88.2386 67.8376 88.2386C67.6176 88.2386 67.4526 88.1986 67.3426 88.1186C67.2426 88.0286 67.1926 87.8886 67.1926 87.6986V84.2936ZM73.8496 82.0436C73.1696 82.0436 72.6046 82.2736 72.1546 82.7336C71.7046 83.1936 71.4796 83.8536 71.4796 84.7136C71.4796 85.5636 71.6946 86.2186 72.1246 86.6786C72.5646 87.1386 73.1396 87.3686 73.8496 87.3686C74.2696 87.3686 74.6196 87.3136 74.8996 87.2036C75.1796 87.0836 75.4296 86.9486 75.6496 86.7986C75.7596 86.8586 75.8496 86.9336 75.9196 87.0236C75.9896 87.1136 76.0246 87.2236 76.0246 87.3536C76.0246 87.6336 75.8146 87.8736 75.3946 88.0736C74.9846 88.2636 74.4696 88.3586 73.8496 88.3586C73.1596 88.3586 72.5396 88.2286 71.9896 87.9686C71.4496 87.6986 71.0246 87.2936 70.7146 86.7536C70.4046 86.2136 70.2496 85.5336 70.2496 84.7136C70.2496 83.9036 70.4096 83.2286 70.7296 82.6886C71.0496 82.1386 71.4796 81.7286 72.0196 81.4586C72.5696 81.1786 73.1696 81.0386 73.8196 81.0386C74.4396 81.0386 74.9496 81.1436 75.3496 81.3536C75.7596 81.5636 75.9646 81.8036 75.9646 82.0736C75.9646 82.1936 75.9296 82.2986 75.8596 82.3886C75.7896 82.4786 75.6996 82.5486 75.5896 82.5986C75.3696 82.4486 75.1246 82.3186 74.8546 82.2086C74.5946 82.0986 74.2596 82.0436 73.8496 82.0436ZM77.6977 79.0436C77.6977 78.8336 77.7727 78.6586 77.9227 78.5186C78.0727 78.3686 78.2577 78.2936 78.4777 78.2936C78.7077 78.2936 78.8927 78.3686 79.0327 78.5186C79.1727 78.6586 79.2427 78.8336 79.2427 79.0436C79.2427 79.2536 79.1727 79.4336 79.0327 79.5836C78.8927 79.7236 78.7077 79.7936 78.4777 79.7936C78.2577 79.7936 78.0727 79.7236 77.9227 79.5836C77.7727 79.4336 77.6977 79.2536 77.6977 79.0436ZM77.8777 84.2036H79.0777V88.1336C79.0277 88.1536 78.9527 88.1736 78.8527 88.1936C78.7527 88.2236 78.6427 88.2386 78.5227 88.2386C78.3127 88.2386 78.1527 88.1986 78.0427 88.1186C77.9327 88.0286 77.8777 87.8886 77.8777 87.6986V84.2036ZM79.0777 84.7886H77.8777V81.2636C77.9277 81.2436 78.0027 81.2236 78.1027 81.2036C78.2127 81.1736 78.3277 81.1586 78.4477 81.1586C78.6577 81.1586 78.8127 81.2036 78.9127 81.2936C79.0227 81.3736 79.0777 81.5136 79.0777 81.7136V84.7886ZM83.8959 87.3836C84.3159 87.3836 84.6609 87.3436 84.9309 87.2636C85.2109 87.1736 85.4109 87.0886 85.5309 87.0086V84.8336L83.6709 85.0286C83.1509 85.0686 82.7659 85.1836 82.5159 85.3736C82.2659 85.5636 82.1409 85.8386 82.1409 86.1986C82.1409 86.5686 82.2859 86.8586 82.5759 87.0686C82.8759 87.2786 83.3159 87.3836 83.8959 87.3836ZM83.8809 81.0386C84.7509 81.0386 85.4409 81.2336 85.9509 81.6236C86.4609 82.0136 86.7159 82.6286 86.7159 83.4686V87.0236C86.7159 87.2436 86.6709 87.4136 86.5809 87.5336C86.5009 87.6436 86.3759 87.7486 86.2059 87.8486C85.9659 87.9786 85.6459 88.0986 85.2459 88.2086C84.8459 88.3186 84.3959 88.3736 83.8959 88.3736C82.9559 88.3736 82.2259 88.1886 81.7059 87.8186C81.1959 87.4486 80.9409 86.9136 80.9409 86.2136C80.9409 85.5636 81.1559 85.0686 81.5859 84.7286C82.0259 84.3786 82.6309 84.1686 83.4009 84.0986L85.5309 83.8886V83.4686C85.5309 82.9686 85.3809 82.6036 85.0809 82.3736C84.7809 82.1436 84.3759 82.0286 83.8659 82.0286C83.4559 82.0286 83.0609 82.0886 82.6809 82.2086C82.3109 82.3286 81.9809 82.4636 81.6909 82.6136C81.6109 82.5436 81.5359 82.4636 81.4659 82.3736C81.4059 82.2736 81.3759 82.1736 81.3759 82.0736C81.3759 81.8136 81.5209 81.6136 81.8109 81.4736C82.0809 81.3336 82.3909 81.2286 82.7409 81.1586C83.1009 81.0786 83.4809 81.0386 83.8809 81.0386ZM90.1063 82.5236V84.8936H88.9063V82.6136C88.9063 82.3836 88.9463 82.2036 89.0263 82.0736C89.1163 81.9336 89.2613 81.7986 89.4613 81.6686C89.7213 81.4986 90.0763 81.3536 90.5263 81.2336C90.9763 81.1036 91.4763 81.0386 92.0263 81.0386C92.8263 81.0386 93.2263 81.2386 93.2263 81.6386C93.2263 81.7386 93.2113 81.8336 93.1813 81.9236C93.1513 82.0036 93.1113 82.0736 93.0613 82.1336C92.9613 82.1136 92.8313 82.0936 92.6713 82.0736C92.5113 82.0536 92.3513 82.0436 92.1912 82.0436C91.7313 82.0436 91.3263 82.0936 90.9763 82.1936C90.6263 82.2836 90.3363 82.3936 90.1063 82.5236ZM88.9063 84.2036L90.1063 84.3836V88.1336C90.0563 88.1536 89.9813 88.1736 89.8813 88.1936C89.7813 88.2236 89.6713 88.2386 89.5513 88.2386C89.3413 88.2386 89.1813 88.1986 89.0713 88.1186C88.9613 88.0286 88.9063 87.8886 88.9063 87.6986V84.2036ZM51.6939 97.0436C51.0139 97.0436 50.4489 97.2736 49.9989 97.7336C49.5489 98.1936 49.3239 98.8536 49.3239 99.7136C49.3239 100.564 49.5389 101.219 49.9689 101.679C50.4089 102.139 50.9839 102.369 51.6939 102.369C52.1139 102.369 52.4639 102.314 52.7439 102.204C53.0239 102.084 53.2739 101.949 53.4939 101.799C53.6039 101.859 53.6939 101.934 53.7639 102.024C53.8339 102.114 53.8689 102.224 53.8689 102.354C53.8689 102.634 53.6589 102.874 53.2389 103.074C52.8289 103.264 52.3139 103.359 51.6939 103.359C51.0039 103.359 50.3839 103.229 49.8339 102.969C49.2939 102.699 48.8689 102.294 48.5589 101.754C48.2489 101.214 48.0939 100.534 48.0939 99.7136C48.0939 98.9036 48.2539 98.2286 48.5739 97.6886C48.8939 97.1386 49.3239 96.7286 49.8639 96.4586C50.4139 96.1786 51.0139 96.0386 51.6639 96.0386C52.2839 96.0386 52.7939 96.1436 53.1939 96.3536C53.6039 96.5636 53.8089 96.8036 53.8089 97.0736C53.8089 97.1936 53.7739 97.2986 53.7039 97.3886C53.6339 97.4786 53.5439 97.5486 53.4339 97.5986C53.2139 97.4486 52.9689 97.3186 52.6989 97.2086C52.4389 97.0986 52.1039 97.0436 51.6939 97.0436ZM58.1806 102.384C58.6006 102.384 58.9456 102.344 59.2156 102.264C59.4956 102.174 59.6956 102.089 59.8156 102.009V99.8336L57.9556 100.029C57.4356 100.069 57.0506 100.184 56.8006 100.374C56.5506 100.564 56.4256 100.839 56.4256 101.199C56.4256 101.569 56.5706 101.859 56.8606 102.069C57.1606 102.279 57.6006 102.384 58.1806 102.384ZM58.1656 96.0386C59.0356 96.0386 59.7256 96.2336 60.2356 96.6236C60.7456 97.0136 61.0006 97.6286 61.0006 98.4686V102.024C61.0006 102.244 60.9556 102.414 60.8656 102.534C60.7856 102.644 60.6606 102.749 60.4906 102.849C60.2506 102.979 59.9306 103.099 59.5306 103.209C59.1306 103.319 58.6806 103.374 58.1806 103.374C57.2406 103.374 56.5106 103.189 55.9906 102.819C55.4806 102.449 55.2256 101.914 55.2256 101.214C55.2256 100.564 55.4406 100.069 55.8706 99.7286C56.3106 99.3786 56.9156 99.1686 57.6856 99.0986L59.8156 98.8886V98.4686C59.8156 97.9686 59.6656 97.6036 59.3656 97.3736C59.0656 97.1436 58.6606 97.0286 58.1506 97.0286C57.7406 97.0286 57.3456 97.0886 56.9656 97.2086C56.5956 97.3286 56.2656 97.4636 55.9756 97.6136C55.8956 97.5436 55.8206 97.4636 55.7506 97.3736C55.6906 97.2736 55.6606 97.1736 55.6606 97.0736C55.6606 96.8136 55.8056 96.6136 56.0956 96.4736C56.3656 96.3336 56.6756 96.2286 57.0256 96.1586C57.3856 96.0786 57.7656 96.0386 58.1656 96.0386ZM57.0856 93.3986C57.3656 93.3986 57.6156 93.4436 57.8356 93.5336C58.0656 93.6136 58.2756 93.6986 58.4656 93.7886C58.6656 93.8686 58.8506 93.9086 59.0206 93.9086C59.2006 93.9086 59.3306 93.8536 59.4106 93.7436C59.5006 93.6336 59.5656 93.4986 59.6056 93.3386H59.6956C59.8756 93.3386 60.0356 93.3836 60.1756 93.4736C60.3156 93.5536 60.3856 93.6986 60.3856 93.9086C60.3856 94.1886 60.2856 94.4136 60.0856 94.5836C59.8856 94.7536 59.6206 94.8386 59.2906 94.8386C59.0106 94.8386 58.7506 94.7936 58.5106 94.7036C58.2706 94.6136 58.0506 94.5286 57.8506 94.4486C57.6506 94.3586 57.4706 94.3136 57.3106 94.3136C57.1306 94.3136 57.0006 94.3686 56.9206 94.4786C56.8406 94.5886 56.7806 94.7286 56.7406 94.8986H56.6506C56.4706 94.8986 56.3106 94.8536 56.1706 94.7636C56.0306 94.6736 55.9606 94.5286 55.9606 94.3286C55.9606 94.1286 56.0106 93.9636 56.1106 93.8336C56.2206 93.6936 56.3606 93.5886 56.5306 93.5186C56.7106 93.4386 56.8956 93.3986 57.0856 93.3986ZM63.6259 100.464L63.5659 99.5186L68.0959 98.9036C68.0559 98.3536 67.8659 97.9036 67.5259 97.5536C67.1859 97.1936 66.7159 97.0136 66.1159 97.0136C65.4959 97.0136 64.9809 97.2386 64.5709 97.6886C64.1709 98.1286 63.9709 98.7636 63.9709 99.5936V99.9236C64.0409 100.724 64.3009 101.334 64.7509 101.754C65.2109 102.164 65.8359 102.369 66.6259 102.369C67.0459 102.369 67.4259 102.299 67.7659 102.159C68.1059 102.019 68.3759 101.869 68.5759 101.709C68.6859 101.779 68.7709 101.864 68.8309 101.964C68.9009 102.054 68.9359 102.159 68.9359 102.279C68.9359 102.469 68.8259 102.649 68.6059 102.819C68.3959 102.979 68.1109 103.109 67.7509 103.209C67.4009 103.309 67.0059 103.359 66.5659 103.359C65.7959 103.359 65.1259 103.219 64.5559 102.939C63.9959 102.659 63.5609 102.244 63.2509 101.694C62.9509 101.134 62.8009 100.454 62.8009 99.6536C62.8009 99.0836 62.8809 98.5786 63.0409 98.1386C63.2109 97.6886 63.4409 97.3086 63.7309 96.9986C64.0309 96.6886 64.3859 96.4536 64.7959 96.2936C65.2059 96.1236 65.6509 96.0386 66.1309 96.0386C66.7409 96.0386 67.2759 96.1686 67.7359 96.4286C68.2059 96.6886 68.5709 97.0536 68.8309 97.5236C69.1009 97.9836 69.2359 98.5136 69.2359 99.1136C69.2359 99.3336 69.1859 99.4936 69.0859 99.5936C68.9859 99.6836 68.8459 99.7386 68.6659 99.7586L63.6259 100.464ZM75.9471 101.319C75.9471 101.959 75.7121 102.459 75.2421 102.819C74.7721 103.179 74.0921 103.359 73.2021 103.359C72.4421 103.359 71.8221 103.244 71.3421 103.014C70.8621 102.774 70.6221 102.514 70.6221 102.234C70.6221 102.114 70.6521 101.999 70.7121 101.889C70.7821 101.769 70.8821 101.674 71.0121 101.604C71.2821 101.794 71.5971 101.969 71.9571 102.129C72.3171 102.289 72.7271 102.369 73.1871 102.369C74.2271 102.369 74.7471 102.019 74.7471 101.319C74.7471 101.029 74.6571 100.794 74.4771 100.614C74.3071 100.424 74.0521 100.289 73.7121 100.209L72.4671 99.8786C71.8571 99.7286 71.4121 99.4986 71.1321 99.1886C70.8521 98.8686 70.7121 98.4736 70.7121 98.0036C70.7121 97.4736 70.9271 97.0136 71.3571 96.6236C71.7871 96.2336 72.4421 96.0386 73.3221 96.0386C73.7921 96.0386 74.2021 96.0886 74.5521 96.1886C74.9021 96.2786 75.1721 96.4036 75.3621 96.5636C75.5621 96.7136 75.6621 96.8786 75.6621 97.0586C75.6621 97.1886 75.6271 97.3036 75.5571 97.4036C75.4971 97.5036 75.4121 97.5786 75.3021 97.6286C75.1821 97.5486 75.0271 97.4636 74.8371 97.3736C74.6571 97.2736 74.4421 97.1936 74.1921 97.1336C73.9421 97.0636 73.6671 97.0286 73.3671 97.0286C72.9271 97.0286 72.5721 97.1136 72.3021 97.2836C72.0321 97.4536 71.8971 97.6936 71.8971 98.0036C71.8971 98.2236 71.9721 98.4186 72.1221 98.5886C72.2821 98.7486 72.5321 98.8686 72.8721 98.9486L73.9071 99.2036C74.5871 99.3636 75.0971 99.6186 75.4371 99.9686C75.7771 100.309 75.9471 100.759 75.9471 101.319Z" fill="#741FFF"/>
<path d="M79.9515 40.6667V33.4133C79.9515 29.605 79.9515 27.7008 79.2103 26.2462C78.5584 24.9667 77.5181 23.9264 76.2386 23.2745C74.784 22.5333 72.8798 22.5333 69.0715 22.5333H54.5648C50.7565 22.5333 48.8523 22.5333 47.3977 23.2745C46.1182 23.9264 45.0779 24.9667 44.426 26.2462C43.6848 27.7008 43.6848 29.605 43.6848 33.4133V56.9867C43.6848 60.795 43.6848 62.6992 44.426 64.1538C45.0779 65.4333 46.1182 66.4736 47.3977 67.1255C48.8523 67.8667 50.7565 67.8667 54.5648 67.8667H61.8181M62.9515 42.9333H52.7515M55.0181 52H52.7515M70.8848 33.8667H52.7515M73.1453 51.616C71.3325 49.5556 68.3097 49.0014 66.0384 50.8881C63.7672 52.7748 63.4474 55.9292 65.231 58.1606C67.0146 60.392 73.1453 65.6 73.1453 65.6C73.1453 65.6 79.2759 60.392 81.0595 58.1606C82.8431 55.9292 82.5624 52.7549 80.2521 50.8881C77.9419 49.0212 74.958 49.5556 73.1453 51.616Z" stroke="#741FFF" stroke-width="3" stroke-linecap="round" stroke-linejoin="round"/>
</svg>
