<svg width="100" height="100" viewBox="0 0 100 100" fill="none" xmlns="http://www.w3.org/2000/svg">
<rect x="1" y="1" width="98" height="98" rx="9" stroke="#741FFF" stroke-width="2"/>
<path d="M43.2972 71.92C43.2972 73.3067 43.0439 74.4733 42.5372 75.42C42.0305 76.3533 41.3372 77.06 40.4572 77.54C39.5905 78.02 38.6039 78.26 37.4972 78.26C36.4039 78.26 35.4172 78.02 34.5372 77.54C33.6572 77.06 32.9639 76.3533 32.4572 75.42C31.9505 74.4733 31.6972 73.3067 31.6972 71.92C31.6972 70.5333 31.9572 69.3733 32.4772 68.44C32.9972 67.4933 33.6905 66.78 34.5572 66.3C35.4372 65.82 36.4172 65.58 37.4972 65.58C38.5905 65.58 39.5705 65.82 40.4372 66.3C41.3172 66.78 42.0105 67.4933 42.5172 68.44C43.0372 69.3733 43.2972 70.5333 43.2972 71.92ZM41.6372 71.92C41.6372 70.3333 41.2572 69.1133 40.4972 68.26C39.7505 67.3933 38.7505 66.96 37.4972 66.96C36.2572 66.96 35.2572 67.3933 34.4972 68.26C33.7505 69.1133 33.3772 70.3333 33.3772 71.92C33.3772 73.5067 33.7505 74.7333 34.4972 75.6C35.2439 76.4533 36.2439 76.88 37.4972 76.88C38.7639 76.88 39.7705 76.4533 40.5172 75.6C41.2639 74.7333 41.6372 73.5067 41.6372 71.92ZM46.1863 67.22L47.5463 67.1C47.5996 67.5133 47.6463 68 47.6863 68.56C47.7263 69.12 47.7529 69.7 47.7663 70.3C47.7929 70.8867 47.8063 71.4467 47.8063 71.98V77.96C47.7396 77.9867 47.6329 78.0133 47.4863 78.04C47.3529 78.08 47.2129 78.1 47.0663 78.1C46.7729 78.1 46.5529 78.0467 46.4063 77.94C46.2596 77.82 46.1863 77.6333 46.1863 77.38V67.22ZM55.8263 76.62L54.4463 76.74C54.3129 75.62 54.2329 74.48 54.2063 73.32C54.1929 72.1467 54.1863 71.0133 54.1863 69.92V65.88C54.2663 65.8533 54.3729 65.8267 54.5062 65.8C54.6396 65.76 54.7863 65.74 54.9463 65.74C55.2396 65.74 55.4596 65.8 55.6063 65.92C55.7529 66.0267 55.8263 66.2067 55.8263 66.46V76.62ZM55.8263 76.02V77.78C55.7063 77.8733 55.5529 77.9533 55.3663 78.02C55.1796 78.0867 54.9729 78.12 54.7463 78.12C54.4263 78.12 54.1529 78.06 53.9263 77.94C53.6996 77.8067 53.4929 77.5733 53.3063 77.24L49.5063 70.84C49.3063 70.48 49.0863 70.0867 48.8463 69.66C48.6063 69.22 48.3796 68.8067 48.1663 68.42C47.9529 68.02 47.7863 67.6933 47.6663 67.44L46.1863 67.82V66.08C46.2929 65.9733 46.4396 65.8867 46.6263 65.82C46.8263 65.7533 47.0396 65.72 47.2663 65.72C47.5863 65.72 47.8596 65.7867 48.0863 65.92C48.3129 66.04 48.5196 66.2667 48.7063 66.6L52.5263 73C52.7396 73.36 52.9596 73.76 53.1863 74.2C53.4263 74.6267 53.6463 75.04 53.8463 75.44C54.0463 75.8267 54.2063 76.1467 54.3263 76.4L55.8263 76.02ZM69.0094 72.26V76.6C69.0094 76.84 68.936 77.0467 68.7894 77.22C68.656 77.38 68.4494 77.5267 68.1694 77.66C67.836 77.8333 67.376 77.9733 66.7894 78.08C66.2027 78.2 65.6094 78.26 65.0094 78.26C63.7694 78.26 62.6694 78.0333 61.7094 77.58C60.7627 77.1267 60.0227 76.4333 59.4894 75.5C58.956 74.5667 58.6894 73.38 58.6894 71.94C58.6894 70.5133 58.9627 69.3333 59.5094 68.4C60.0694 67.4533 60.8094 66.7467 61.7294 66.28C62.6494 65.8133 63.656 65.58 64.7494 65.58C65.5094 65.58 66.176 65.66 66.7494 65.82C67.3227 65.98 67.7694 66.18 68.0894 66.42C68.4094 66.66 68.5694 66.9067 68.5694 67.16C68.5694 67.3333 68.516 67.4933 68.4094 67.64C68.3027 67.7733 68.176 67.8733 68.0294 67.94C67.6694 67.7 67.2427 67.48 66.7494 67.28C66.256 67.0667 65.6227 66.96 64.8494 66.96C64.0094 66.96 63.2494 67.1467 62.5694 67.52C61.8894 67.8933 61.3494 68.4533 60.9494 69.2C60.5627 69.9333 60.3694 70.8467 60.3694 71.94C60.3694 73.0867 60.5694 74.0267 60.9694 74.76C61.3827 75.48 61.9427 76.0133 62.6494 76.36C63.356 76.7067 64.1494 76.88 65.0294 76.88C65.5094 76.88 65.9627 76.84 66.3894 76.76C66.816 76.68 67.1494 76.58 67.3894 76.46V72.78H64.3694C64.3294 72.7133 64.2894 72.6267 64.2494 72.52C64.2094 72.4 64.1894 72.2733 64.1894 72.14C64.1894 71.9133 64.2427 71.74 64.3494 71.62C64.456 71.4867 64.6094 71.42 64.8094 71.42H68.1494C68.3894 71.42 68.5894 71.5 68.7494 71.66C68.9227 71.8067 69.0094 72.0067 69.0094 72.26Z" fill="#741FFF"/>
<path d="M55.5 54.5V44.6C55.5 43.5732 55.5 43.0599 55.3002 42.6677C55.1244 42.3227 54.8439 42.0423 54.499 41.8665C54.1068 41.6667 53.5934 41.6667 52.5667 41.6667H47.4333C46.4066 41.6667 45.8932 41.6667 45.501 41.8665C45.1561 42.0423 44.8756 42.3227 44.6998 42.6677C44.5 43.0599 44.5 43.5732 44.5 44.6V54.5M33.5 28.8333C33.5 31.8709 35.9624 34.3333 39 34.3333C42.0376 34.3333 44.5 31.8709 44.5 28.8333C44.5 31.8709 46.9624 34.3333 50 34.3333C53.0376 34.3333 55.5 31.8709 55.5 28.8333C55.5 31.8709 57.9624 34.3333 61 34.3333C64.0376 34.3333 66.5 31.8709 66.5 28.8333M39.3667 54.5H60.6333C62.6869 54.5 63.7136 54.5 64.498 54.1004C65.1879 53.7488 65.7488 53.1879 66.1004 52.498C66.5 51.7136 66.5 50.6869 66.5 48.6333V27.3667C66.5 25.3131 66.5 24.2864 66.1004 23.502C65.7488 22.8121 65.1879 22.2512 64.498 21.8996C63.7136 21.5 62.6869 21.5 60.6333 21.5H39.3667C37.3131 21.5 36.2864 21.5 35.502 21.8996C34.8121 22.2512 34.2512 22.8121 33.8996 23.502C33.5 24.2864 33.5 25.3131 33.5 27.3667V48.6333C33.5 50.6869 33.5 51.7136 33.8996 52.498C34.2512 53.1879 34.8121 53.7488 35.502 54.1004C36.2864 54.5 37.3131 54.5 39.3667 54.5Z" stroke="#741FFF" stroke-width="3" stroke-linecap="round" stroke-linejoin="round"/>
</svg>
