<svg width="125" height="124" viewBox="0 0 125 124" fill="none" xmlns="http://www.w3.org/2000/svg">
<rect x="1.63635" y="1" width="121.636" height="121.636" rx="9" stroke="#741FFF" stroke-width="2"/>
<path d="M45.7645 88.5209C45.6945 88.5709 45.5995 88.6159 45.4795 88.6559C45.3695 88.6959 45.2445 88.7159 45.1045 88.7159C44.9445 88.7159 44.7995 88.6909 44.6695 88.6409C44.5495 88.5909 44.4645 88.5109 44.4145 88.4009C43.8845 87.2809 43.4195 86.2559 43.0195 85.3259C42.6295 84.3959 42.3145 83.6259 42.0745 83.0159H42.0145C41.9845 83.7659 41.9495 84.4659 41.9095 85.1159C41.8795 85.7659 41.8445 86.3959 41.8045 87.0059C41.7645 87.6059 41.7245 88.2259 41.6845 88.8659C41.6545 89.4959 41.6145 90.1709 41.5645 90.8909C41.5045 90.9109 41.4245 90.9309 41.3245 90.9509C41.2345 90.9709 41.1345 90.9809 41.0245 90.9809C40.8045 90.9809 40.6495 90.9359 40.5595 90.8459C40.4695 90.7459 40.4245 90.6159 40.4245 90.4559C40.4245 90.3359 40.4345 90.0609 40.4545 89.6309C40.4845 89.1909 40.5145 88.6559 40.5445 88.0259C40.5845 87.3959 40.6295 86.7259 40.6795 86.0159C40.7295 85.2959 40.7795 84.5909 40.8295 83.9009C40.8895 83.2009 40.9445 82.5709 40.9945 82.0109C41.0745 81.9409 41.1895 81.8759 41.3395 81.8159C41.4895 81.7559 41.6595 81.7259 41.8495 81.7259C42.0795 81.7259 42.2745 81.7709 42.4345 81.8609C42.5945 81.9509 42.7195 82.0909 42.8095 82.2809C43.0695 82.7909 43.3295 83.3459 43.5895 83.9459C43.8495 84.5459 44.1045 85.1459 44.3545 85.7459C44.6045 86.3459 44.8445 86.9109 45.0745 87.4409H45.1345C45.5745 86.3809 46.0095 85.3609 46.4395 84.3809C46.8795 83.4009 47.2495 82.5659 47.5495 81.8759C47.6395 81.8259 47.7545 81.7909 47.8945 81.7709C48.0345 81.7409 48.1645 81.7259 48.2845 81.7259C48.5145 81.7259 48.6945 81.7659 48.8245 81.8459C48.9645 81.9159 49.0545 82.0359 49.0945 82.2059C49.1345 82.3759 49.1795 82.6659 49.2295 83.0759C49.2795 83.4859 49.3295 83.9709 49.3795 84.5309C49.4295 85.0809 49.4745 85.6609 49.5145 86.2709C49.5645 86.8809 49.6095 87.4809 49.6495 88.0709C49.6895 88.6609 49.7245 89.1959 49.7545 89.6759C49.7945 90.1459 49.8195 90.5209 49.8295 90.8009C49.7395 90.8609 49.6445 90.9059 49.5445 90.9359C49.4445 90.9659 49.3295 90.9809 49.1995 90.9809C49.0495 90.9809 48.9145 90.9459 48.7945 90.8759C48.6845 90.7959 48.6195 90.6559 48.5995 90.4559C48.5395 89.4859 48.4795 88.5309 48.4195 87.5909C48.3695 86.6409 48.3245 85.7709 48.2845 84.9809C48.2445 84.1909 48.2095 83.5459 48.1795 83.0459H48.1195C47.8995 83.5959 47.5995 84.3059 47.2195 85.1759C46.8395 86.0359 46.3545 87.1509 45.7645 88.5209ZM54.5436 90.1109C54.9636 90.1109 55.3086 90.0709 55.5786 89.9909C55.8586 89.9009 56.0586 89.8159 56.1786 89.7359V87.5609L54.3186 87.7559C53.7986 87.7959 53.4136 87.9109 53.1636 88.1009C52.9136 88.2909 52.7886 88.5659 52.7886 88.9259C52.7886 89.2959 52.9336 89.5859 53.2236 89.7959C53.5236 90.0059 53.9636 90.1109 54.5436 90.1109ZM54.5286 83.7659C55.3986 83.7659 56.0886 83.9609 56.5986 84.3509C57.1086 84.7409 57.3636 85.3559 57.3636 86.1959V89.7509C57.3636 89.9709 57.3186 90.1409 57.2286 90.2609C57.1486 90.3709 57.0236 90.4759 56.8536 90.5759C56.6136 90.7059 56.2936 90.8259 55.8936 90.9359C55.4936 91.0459 55.0436 91.1009 54.5436 91.1009C53.6036 91.1009 52.8736 90.9159 52.3536 90.5459C51.8436 90.1759 51.5886 89.6409 51.5886 88.9409C51.5886 88.2909 51.8036 87.7959 52.2336 87.4559C52.6736 87.1059 53.2786 86.8959 54.0486 86.8259L56.1786 86.6159V86.1959C56.1786 85.6959 56.0286 85.3309 55.7286 85.1009C55.4286 84.8709 55.0236 84.7559 54.5136 84.7559C54.1036 84.7559 53.7086 84.8159 53.3286 84.9359C52.9586 85.0559 52.6286 85.1909 52.3386 85.3409C52.2586 85.2709 52.1836 85.1909 52.1136 85.1009C52.0536 85.0009 52.0236 84.9009 52.0236 84.8009C52.0236 84.5409 52.1686 84.3409 52.4586 84.2009C52.7286 84.0609 53.0386 83.9559 53.3886 83.8859C53.7486 83.8059 54.1286 83.7659 54.5286 83.7659ZM59.569 86.9309H60.769V89.0009C60.769 89.4009 60.884 89.6859 61.114 89.8559C61.344 90.0159 61.659 90.0959 62.059 90.0959C62.229 90.0959 62.419 90.0659 62.629 90.0059C62.839 89.9459 63.014 89.8759 63.154 89.7959C63.214 89.8559 63.269 89.9309 63.319 90.0209C63.369 90.1109 63.394 90.2159 63.394 90.3359C63.394 90.5559 63.264 90.7359 63.004 90.8759C62.744 91.0159 62.384 91.0859 61.924 91.0859C61.224 91.0859 60.654 90.9309 60.214 90.6209C59.784 90.3109 59.569 89.7959 59.569 89.0759V86.9309ZM60.184 85.1009V84.1109H63.229C63.259 84.1509 63.289 84.2159 63.319 84.3059C63.349 84.3959 63.364 84.4909 63.364 84.5909C63.364 84.7509 63.324 84.8759 63.244 84.9659C63.164 85.0559 63.054 85.1009 62.914 85.1009H60.184ZM60.769 87.3809H59.569V81.9509C59.619 81.9309 59.694 81.9109 59.794 81.8909C59.904 81.8609 60.019 81.8459 60.139 81.8459C60.349 81.8459 60.504 81.8909 60.604 81.9809C60.714 82.0609 60.769 82.1959 60.769 82.3859V87.3809ZM68.1253 84.7709C67.4453 84.7709 66.8803 85.0009 66.4303 85.4609C65.9803 85.9209 65.7553 86.5809 65.7553 87.4409C65.7553 88.2909 65.9703 88.9459 66.4003 89.4059C66.8403 89.8659 67.4153 90.0959 68.1253 90.0959C68.5453 90.0959 68.8953 90.0409 69.1753 89.9309C69.4553 89.8109 69.7053 89.6759 69.9253 89.5259C70.0353 89.5859 70.1253 89.6609 70.1953 89.7509C70.2653 89.8409 70.3003 89.9509 70.3003 90.0809C70.3003 90.3609 70.0903 90.6009 69.6703 90.8009C69.2603 90.9909 68.7453 91.0859 68.1253 91.0859C67.4353 91.0859 66.8153 90.9559 66.2653 90.6959C65.7253 90.4259 65.3003 90.0209 64.9903 89.4809C64.6803 88.9409 64.5253 88.2609 64.5253 87.4409C64.5253 86.6309 64.6853 85.9559 65.0053 85.4159C65.3253 84.8659 65.7553 84.4559 66.2953 84.1859C66.8453 83.9059 67.4453 83.7659 68.0953 83.7659C68.7153 83.7659 69.2253 83.8709 69.6253 84.0809C70.0353 84.2909 70.2403 84.5309 70.2403 84.8009C70.2403 84.9209 70.2053 85.0259 70.1353 85.1159C70.0653 85.2059 69.9753 85.2759 69.8653 85.3259C69.6453 85.1759 69.4003 85.0459 69.1303 84.9359C68.8703 84.8259 68.5353 84.7709 68.1253 84.7709ZM78.0934 87.9059H76.8934V86.5259C76.8934 85.9259 76.7234 85.4809 76.3834 85.1909C76.0534 84.9009 75.6234 84.7559 75.0934 84.7559C74.7034 84.7559 74.3384 84.8309 73.9984 84.9809C73.6684 85.1309 73.3884 85.3109 73.1584 85.5209L72.9334 84.5459C73.1734 84.3759 73.4884 84.2059 73.8784 84.0359C74.2784 83.8559 74.7384 83.7659 75.2584 83.7659C76.0884 83.7659 76.7684 83.9909 77.2984 84.4409C77.8284 84.8909 78.0934 85.5759 78.0934 86.4959V87.9059ZM72.1084 86.9309H73.3084V90.8609C73.2584 90.8809 73.1834 90.9009 73.0834 90.9209C72.9834 90.9509 72.8734 90.9659 72.7534 90.9659C72.5434 90.9659 72.3834 90.9259 72.2734 90.8459C72.1634 90.7559 72.1084 90.6159 72.1084 90.4259V86.9309ZM76.8934 86.9459L78.0934 86.9609V90.8609C78.0434 90.8809 77.9634 90.9009 77.8534 90.9209C77.7534 90.9509 77.6484 90.9659 77.5384 90.9659C77.3184 90.9659 77.1534 90.9259 77.0434 90.8459C76.9434 90.7559 76.8934 90.6159 76.8934 90.4259V86.9459ZM73.3084 87.5159H72.1084V81.1709C72.1584 81.1509 72.2334 81.1309 72.3334 81.1109C72.4434 81.0809 72.5584 81.0659 72.6784 81.0659C72.8884 81.0659 73.0434 81.1109 73.1434 81.2009C73.2534 81.2809 73.3084 81.4159 73.3084 81.6059V87.5159ZM85.2301 89.0459C85.2301 89.6859 84.9951 90.1859 84.5251 90.5459C84.0551 90.9059 83.3751 91.0859 82.4851 91.0859C81.7251 91.0859 81.1051 90.9709 80.6251 90.7409C80.1451 90.5009 79.9051 90.2409 79.9051 89.9609C79.9051 89.8409 79.9351 89.7259 79.9951 89.6159C80.0651 89.4959 80.1651 89.4009 80.2951 89.3309C80.5651 89.5209 80.8801 89.6959 81.2401 89.8559C81.6001 90.0159 82.0101 90.0959 82.4701 90.0959C83.5101 90.0959 84.0301 89.7459 84.0301 89.0459C84.0301 88.7559 83.9401 88.5209 83.7601 88.3409C83.5901 88.1509 83.3351 88.0159 82.9951 87.9359L81.7501 87.6059C81.1401 87.4559 80.6951 87.2259 80.4151 86.9159C80.1351 86.5959 79.9951 86.2009 79.9951 85.7309C79.9951 85.2009 80.2101 84.7409 80.6401 84.3509C81.0701 83.9609 81.7251 83.7659 82.6051 83.7659C83.0751 83.7659 83.4851 83.8159 83.8351 83.9159C84.1851 84.0059 84.4551 84.1309 84.6451 84.2909C84.8451 84.4409 84.9451 84.6059 84.9451 84.7859C84.9451 84.9159 84.9101 85.0309 84.8401 85.1309C84.7801 85.2309 84.6951 85.3059 84.5851 85.3559C84.4651 85.2759 84.3101 85.1909 84.1201 85.1009C83.9401 85.0009 83.7251 84.9209 83.4751 84.8609C83.2251 84.7909 82.9501 84.7559 82.6501 84.7559C82.2101 84.7559 81.8551 84.8409 81.5851 85.0109C81.3151 85.1809 81.1801 85.4209 81.1801 85.7309C81.1801 85.9509 81.2551 86.1459 81.4051 86.3159C81.5651 86.4759 81.8151 86.5959 82.1551 86.6759L83.1901 86.9309C83.8701 87.0909 84.3801 87.3459 84.7201 87.6959C85.0601 88.0359 85.2301 88.4859 85.2301 89.0459Z" fill="#741FFF"/>
<path d="M53.6364 47.4731L59.6364 52.8504L73.1363 40.7514M62.6158 31.7061C56.6177 25.4216 46.6156 23.7311 39.1004 29.4858C31.5853 35.2406 30.5273 44.8623 36.4289 51.6685C40.8866 56.8094 53.5502 67.1299 59.4804 71.8726C60.5705 72.7444 61.1156 73.1803 61.7538 73.3519C62.3079 73.5009 62.9237 73.5009 63.4778 73.3519C64.116 73.1803 64.6611 72.7444 65.7512 71.8726C71.6814 67.1299 84.345 56.8094 88.8027 51.6685C94.7044 44.8623 93.7755 35.1801 86.1312 29.4858C78.4868 23.7916 68.6139 25.4216 62.6158 31.7061Z" stroke="#741FFF" stroke-width="3" stroke-linecap="round" stroke-linejoin="round"/>
</svg>
