<svg width="100" height="100" viewBox="0 0 100 100" fill="none" xmlns="http://www.w3.org/2000/svg">
<path d="M23.1461 70.3H25.0861C26.1528 70.3 26.9794 70.08 27.5661 69.64C28.1528 69.1867 28.4461 68.5067 28.4461 67.6C28.4461 66.6933 28.1594 66.0333 27.5861 65.62C27.0261 65.1933 26.2194 64.98 25.1661 64.98C24.8061 64.98 24.4461 65 24.0861 65.04C23.7394 65.0667 23.4261 65.1067 23.1461 65.16V70.3ZM25.1861 71.66H21.5261V64.72C21.5261 64.5067 21.5794 64.3467 21.6861 64.24C21.8061 64.12 21.9728 64.0267 22.1861 63.96C22.5728 63.84 23.0394 63.7533 23.5861 63.7C24.1461 63.6467 24.6861 63.62 25.2061 63.62C26.8994 63.62 28.1328 63.98 28.9061 64.7C29.6928 65.4067 30.0861 66.3667 30.0861 67.58C30.0861 68.4067 29.9061 69.1267 29.5461 69.74C29.1994 70.3533 28.6661 70.8267 27.9461 71.16C27.2261 71.4933 26.3061 71.66 25.1861 71.66ZM21.5261 70.88H23.1661V75.96C23.0861 75.9867 22.9794 76.0133 22.8461 76.04C22.7128 76.08 22.5661 76.1 22.4061 76.1C22.1128 76.1 21.8928 76.04 21.7461 75.92C21.5994 75.8 21.5261 75.6133 21.5261 75.36V70.88ZM32.7831 72.4L32.7031 71.14L38.7431 70.32C38.6898 69.5867 38.4365 68.9867 37.9831 68.52C37.5298 68.04 36.9031 67.8 36.1031 67.8C35.2765 67.8 34.5898 68.1 34.0431 68.7C33.5098 69.2867 33.2431 70.1333 33.2431 71.24V71.68C33.3365 72.7467 33.6831 73.56 34.2831 74.12C34.8965 74.6667 35.7298 74.94 36.7831 74.94C37.3431 74.94 37.8498 74.8467 38.3031 74.66C38.7565 74.4733 39.1165 74.2733 39.3831 74.06C39.5298 74.1533 39.6431 74.2667 39.7231 74.4C39.8165 74.52 39.8631 74.66 39.8631 74.82C39.8631 75.0733 39.7165 75.3133 39.4231 75.54C39.1431 75.7533 38.7631 75.9267 38.2831 76.06C37.8165 76.1933 37.2898 76.26 36.7031 76.26C35.6765 76.26 34.7831 76.0733 34.0231 75.7C33.2765 75.3267 32.6965 74.7733 32.2831 74.04C31.8831 73.2933 31.6831 72.3867 31.6831 71.32C31.6831 70.56 31.7898 69.8867 32.0031 69.3C32.2298 68.7 32.5365 68.1933 32.9231 67.78C33.3231 67.3667 33.7965 67.0533 34.3431 66.84C34.8898 66.6133 35.4831 66.5 36.1231 66.5C36.9365 66.5 37.6498 66.6733 38.2631 67.02C38.8898 67.3667 39.3765 67.8533 39.7231 68.48C40.0831 69.0933 40.2631 69.8 40.2631 70.6C40.2631 70.8933 40.1965 71.1067 40.0631 71.24C39.9298 71.36 39.7431 71.4333 39.5031 71.46L32.7831 72.4ZM49.2114 73.54C49.2114 74.3933 48.8981 75.06 48.2714 75.54C47.6447 76.02 46.7381 76.26 45.5514 76.26C44.5381 76.26 43.7114 76.1067 43.0714 75.8C42.4314 75.48 42.1114 75.1333 42.1114 74.76C42.1114 74.6 42.1514 74.4467 42.2314 74.3C42.3247 74.14 42.4581 74.0133 42.6314 73.92C42.9914 74.1733 43.4114 74.4067 43.8914 74.62C44.3714 74.8333 44.9181 74.94 45.5314 74.94C46.9181 74.94 47.6114 74.4733 47.6114 73.54C47.6114 73.1533 47.4914 72.84 47.2514 72.6C47.0247 72.3467 46.6847 72.1667 46.2314 72.06L44.5714 71.62C43.7581 71.42 43.1647 71.1133 42.7914 70.7C42.4181 70.2733 42.2314 69.7467 42.2314 69.12C42.2314 68.4133 42.5181 67.8 43.0914 67.28C43.6647 66.76 44.5381 66.5 45.7114 66.5C46.3381 66.5 46.8847 66.5667 47.3514 66.7C47.8181 66.82 48.1781 66.9867 48.4314 67.2C48.6981 67.4 48.8314 67.62 48.8314 67.86C48.8314 68.0333 48.7847 68.1867 48.6914 68.32C48.6114 68.4533 48.4981 68.5533 48.3514 68.62C48.1914 68.5133 47.9847 68.4 47.7314 68.28C47.4914 68.1467 47.2047 68.04 46.8714 67.96C46.5381 67.8667 46.1714 67.82 45.7714 67.82C45.1847 67.82 44.7114 67.9333 44.3514 68.16C43.9914 68.3867 43.8114 68.7067 43.8114 69.12C43.8114 69.4133 43.9114 69.6733 44.1114 69.9C44.3247 70.1133 44.6581 70.2733 45.1114 70.38L46.4914 70.72C47.3981 70.9333 48.0781 71.2733 48.5314 71.74C48.9847 72.1933 49.2114 72.7933 49.2114 73.54ZM58.1567 73.54C58.1567 74.3933 57.8434 75.06 57.2167 75.54C56.5901 76.02 55.6834 76.26 54.4967 76.26C53.4834 76.26 52.6567 76.1067 52.0167 75.8C51.3767 75.48 51.0567 75.1333 51.0567 74.76C51.0567 74.6 51.0967 74.4467 51.1767 74.3C51.2701 74.14 51.4034 74.0133 51.5767 73.92C51.9367 74.1733 52.3567 74.4067 52.8367 74.62C53.3167 74.8333 53.8634 74.94 54.4767 74.94C55.8634 74.94 56.5567 74.4733 56.5567 73.54C56.5567 73.1533 56.4367 72.84 56.1967 72.6C55.9701 72.3467 55.6301 72.1667 55.1767 72.06L53.5167 71.62C52.7034 71.42 52.1101 71.1133 51.7367 70.7C51.3634 70.2733 51.1767 69.7467 51.1767 69.12C51.1767 68.4133 51.4634 67.8 52.0367 67.28C52.6101 66.76 53.4834 66.5 54.6567 66.5C55.2834 66.5 55.8301 66.5667 56.2967 66.7C56.7634 66.82 57.1234 66.9867 57.3767 67.2C57.6434 67.4 57.7767 67.62 57.7767 67.86C57.7767 68.0333 57.7301 68.1867 57.6367 68.32C57.5567 68.4533 57.4434 68.5533 57.2967 68.62C57.1367 68.5133 56.9301 68.4 56.6767 68.28C56.4367 68.1467 56.1501 68.04 55.8167 67.96C55.4834 67.8667 55.1167 67.82 54.7167 67.82C54.1301 67.82 53.6567 67.9333 53.2967 68.16C52.9367 68.3867 52.7567 68.7067 52.7567 69.12C52.7567 69.4133 52.8567 69.6733 53.0567 69.9C53.2701 70.1133 53.6034 70.2733 54.0567 70.38L55.4367 70.72C56.3434 70.9333 57.0234 71.2733 57.4767 71.74C57.9301 72.1933 58.1567 72.7933 58.1567 73.54ZM69.2597 71.38C69.2597 72.3667 69.073 73.2267 68.6997 73.96C68.3264 74.6933 67.7997 75.26 67.1197 75.66C66.4397 76.06 65.6397 76.26 64.7197 76.26C63.7997 76.26 62.993 76.06 62.2997 75.66C61.6197 75.26 61.093 74.6933 60.7197 73.96C60.3464 73.2267 60.1597 72.3667 60.1597 71.38C60.1597 70.38 60.3464 69.52 60.7197 68.8C61.1064 68.0667 61.6397 67.5 62.3197 67.1C63.013 66.7 63.813 66.5 64.7197 66.5C65.6264 66.5 66.4197 66.7 67.0997 67.1C67.7797 67.5 68.3064 68.0667 68.6797 68.8C69.0664 69.52 69.2597 70.38 69.2597 71.38ZM64.7197 67.82C63.8264 67.82 63.113 68.14 62.5797 68.78C62.0597 69.4067 61.7997 70.2733 61.7997 71.38C61.7997 72.5 62.053 73.3733 62.5597 74C63.0797 74.6267 63.7997 74.94 64.7197 74.94C65.6264 74.94 66.333 74.6267 66.8397 74C67.3597 73.36 67.6197 72.4867 67.6197 71.38C67.6197 70.2733 67.3597 69.4067 66.8397 68.78C66.333 68.14 65.6264 67.82 64.7197 67.82ZM75.0734 74.96C75.6334 74.96 76.0934 74.9067 76.4534 74.8C76.8268 74.68 77.0934 74.5667 77.2534 74.46V71.56L74.7734 71.82C74.0801 71.8733 73.5668 72.0267 73.2334 72.28C72.9001 72.5333 72.7334 72.9 72.7334 73.38C72.7334 73.8733 72.9268 74.26 73.3134 74.54C73.7134 74.82 74.3001 74.96 75.0734 74.96ZM75.0534 66.5C76.2134 66.5 77.1334 66.76 77.8134 67.28C78.4934 67.8 78.8334 68.62 78.8334 69.74V74.48C78.8334 74.7733 78.7734 75 78.6534 75.16C78.5468 75.3067 78.3801 75.4467 78.1534 75.58C77.8334 75.7533 77.4068 75.9133 76.8734 76.06C76.3401 76.2067 75.7401 76.28 75.0734 76.28C73.8201 76.28 72.8468 76.0333 72.1534 75.54C71.4734 75.0467 71.1334 74.3333 71.1334 73.4C71.1334 72.5333 71.4201 71.8733 71.9934 71.42C72.5801 70.9533 73.3868 70.6733 74.4134 70.58L77.2534 70.3V69.74C77.2534 69.0733 77.0534 68.5867 76.6534 68.28C76.2534 67.9733 75.7134 67.82 75.0334 67.82C74.4868 67.82 73.9601 67.9 73.4534 68.06C72.9601 68.22 72.5201 68.4 72.1334 68.6C72.0268 68.5067 71.9268 68.4 71.8334 68.28C71.7534 68.1467 71.7134 68.0133 71.7134 67.88C71.7134 67.5333 71.9068 67.2667 72.2934 67.08C72.6534 66.8933 73.0668 66.7533 73.5334 66.66C74.0134 66.5533 74.5201 66.5 75.0534 66.5Z" fill="#741FFF"/>
<rect x="1" y="1" width="98" height="98" rx="9" stroke="#741FFF" stroke-width="2"/>
<path d="M64.6667 57.5C64.6667 54.9415 64.6667 53.6622 64.3509 52.6212C63.6399 50.2775 61.8058 48.4434 59.4621 47.7324C58.4211 47.4167 57.1419 47.4167 54.5833 47.4167H45.4167C42.8581 47.4167 41.5789 47.4167 40.5379 47.7324C38.1942 48.4434 36.3601 50.2775 35.6491 52.6212C35.3333 53.6622 35.3333 54.9415 35.3333 57.5M58.25 32.75C58.25 37.3063 54.5563 41 50 41C45.4436 41 41.75 37.3063 41.75 32.75C41.75 28.1937 45.4436 24.5 50 24.5C54.5563 24.5 58.25 28.1937 58.25 32.75Z" stroke="#741FFF" stroke-width="3" stroke-linecap="round" stroke-linejoin="round"/>
</svg>
