<svg width="124" height="124" viewBox="0 0 124 124" fill="none" xmlns="http://www.w3.org/2000/svg">
<rect x="1" y="1" width="121.636" height="121.636" rx="9" stroke="#741FFF" stroke-width="2"/>
<path d="M34.0454 78.51H35.2604V83.88C35.2204 83.89 35.1454 83.915 35.0354 83.955C34.9254 83.985 34.8154 84 34.7054 84C34.5054 84 34.3454 83.94 34.2254 83.82C34.1054 83.69 34.0454 83.53 34.0454 83.34V78.51ZM35.2604 80.28L34.0454 80.265V75.54C34.0454 75.34 34.1054 75.18 34.2254 75.06C34.3454 74.94 34.5054 74.88 34.7054 74.88C34.8154 74.88 34.9254 74.895 35.0354 74.925C35.1454 74.955 35.2204 74.98 35.2604 75V80.28ZM34.7054 79.83V78.81H39.2204C39.2504 78.85 39.2804 78.915 39.3104 79.005C39.3404 79.095 39.3554 79.19 39.3554 79.29C39.3554 79.45 39.3154 79.58 39.2354 79.68C39.1554 79.78 39.0404 79.83 38.8904 79.83H34.7054ZM34.7054 84V82.98H39.7604C39.7904 83.02 39.8204 83.085 39.8504 83.175C39.8804 83.255 39.8954 83.35 39.8954 83.46C39.8954 83.62 39.8554 83.75 39.7754 83.85C39.6954 83.95 39.5804 84 39.4304 84H34.7054ZM34.7054 75.915V74.88H39.6854C39.7154 74.92 39.7454 74.985 39.7754 75.075C39.8054 75.165 39.8204 75.26 39.8204 75.36C39.8204 75.52 39.7804 75.655 39.7004 75.765C39.6204 75.865 39.5054 75.915 39.3554 75.915H34.7054ZM47.7603 79.425V80.955H46.5603V79.485C46.5603 78.925 46.4003 78.515 46.0803 78.255C45.7703 77.995 45.3503 77.865 44.8203 77.865C44.4203 77.865 44.0653 77.915 43.7553 78.015C43.4453 78.115 43.1803 78.23 42.9603 78.36V80.955H41.7603V78.42C41.7603 78.21 41.8003 78.04 41.8803 77.91C41.9703 77.77 42.1203 77.635 42.3303 77.505C42.5903 77.355 42.9353 77.215 43.3653 77.085C43.7953 76.945 44.2803 76.875 44.8203 76.875C45.7303 76.875 46.4453 77.085 46.9653 77.505C47.4953 77.915 47.7603 78.555 47.7603 79.425ZM41.7603 80.13H42.9603V83.97C42.9103 83.99 42.8353 84.01 42.7353 84.03C42.6353 84.06 42.5253 84.075 42.4053 84.075C42.1953 84.075 42.0353 84.035 41.9253 83.955C41.8153 83.865 41.7603 83.725 41.7603 83.535V80.13ZM46.5603 80.13H47.7603V83.97C47.7103 83.99 47.6303 84.01 47.5203 84.03C47.4203 84.06 47.3153 84.075 47.2053 84.075C46.9853 84.075 46.8203 84.035 46.7103 83.955C46.6103 83.865 46.5603 83.725 46.5603 83.535V80.13ZM53.2173 77.88C52.5373 77.88 51.9723 78.11 51.5223 78.57C51.0723 79.03 50.8473 79.69 50.8473 80.55C50.8473 81.4 51.0623 82.055 51.4923 82.515C51.9323 82.975 52.5073 83.205 53.2173 83.205C53.6373 83.205 53.9873 83.15 54.2673 83.04C54.5473 82.92 54.7973 82.785 55.0173 82.635C55.1273 82.695 55.2173 82.77 55.2873 82.86C55.3573 82.95 55.3923 83.06 55.3923 83.19C55.3923 83.47 55.1823 83.71 54.7623 83.91C54.3523 84.1 53.8373 84.195 53.2173 84.195C52.5273 84.195 51.9073 84.065 51.3573 83.805C50.8173 83.535 50.3923 83.13 50.0823 82.59C49.7723 82.05 49.6173 81.37 49.6173 80.55C49.6173 79.74 49.7773 79.065 50.0973 78.525C50.4173 77.975 50.8473 77.565 51.3873 77.295C51.9373 77.015 52.5373 76.875 53.1873 76.875C53.8073 76.875 54.3173 76.98 54.7173 77.19C55.1273 77.4 55.3323 77.64 55.3323 77.91C55.3323 78.03 55.2973 78.135 55.2273 78.225C55.1573 78.315 55.0673 78.385 54.9573 78.435C54.7373 78.285 54.4923 78.155 54.2223 78.045C53.9623 77.935 53.6273 77.88 53.2173 77.88ZM63.4296 80.535C63.4296 81.275 63.2896 81.92 63.0096 82.47C62.7296 83.02 62.3346 83.445 61.8246 83.745C61.3146 84.045 60.7146 84.195 60.0246 84.195C59.3346 84.195 58.7296 84.045 58.2096 83.745C57.6996 83.445 57.3046 83.02 57.0246 82.47C56.7446 81.92 56.6046 81.275 56.6046 80.535C56.6046 79.785 56.7446 79.14 57.0246 78.6C57.3146 78.05 57.7146 77.625 58.2246 77.325C58.7446 77.025 59.3446 76.875 60.0246 76.875C60.7046 76.875 61.2996 77.025 61.8096 77.325C62.3196 77.625 62.7146 78.05 62.9946 78.6C63.2846 79.14 63.4296 79.785 63.4296 80.535ZM60.0246 77.865C59.3546 77.865 58.8196 78.105 58.4196 78.585C58.0296 79.055 57.8346 79.705 57.8346 80.535C57.8346 81.375 58.0246 82.03 58.4046 82.5C58.7946 82.97 59.3346 83.205 60.0246 83.205C60.7046 83.205 61.2346 82.97 61.6146 82.5C62.0046 82.02 62.1996 81.365 62.1996 80.535C62.1996 79.705 62.0046 79.055 61.6146 78.585C61.2346 78.105 60.7046 77.865 60.0246 77.865ZM71.2856 79.425V80.955H70.0856V79.485C70.0856 78.925 69.9256 78.515 69.6056 78.255C69.2956 77.995 68.8756 77.865 68.3456 77.865C67.9456 77.865 67.5906 77.915 67.2806 78.015C66.9706 78.115 66.7056 78.23 66.4856 78.36V80.955H65.2856V78.42C65.2856 78.21 65.3256 78.04 65.4056 77.91C65.4956 77.77 65.6456 77.635 65.8556 77.505C66.1156 77.355 66.4606 77.215 66.8906 77.085C67.3206 76.945 67.8056 76.875 68.3456 76.875C69.2556 76.875 69.9706 77.085 70.4906 77.505C71.0206 77.915 71.2856 78.555 71.2856 79.425ZM65.2856 80.13H66.4856V83.97C66.4356 83.99 66.3606 84.01 66.2606 84.03C66.1606 84.06 66.0506 84.075 65.9306 84.075C65.7206 84.075 65.5606 84.035 65.4506 83.955C65.3406 83.865 65.2856 83.725 65.2856 83.535V80.13ZM70.0856 80.13H71.2856V83.97C71.2356 83.99 71.1556 84.01 71.0456 84.03C70.9456 84.06 70.8406 84.075 70.7306 84.075C70.5106 84.075 70.3456 84.035 70.2356 83.955C70.1356 83.865 70.0856 83.725 70.0856 83.535V80.13ZM73.5477 80.04H74.7477V82.11C74.7477 82.51 74.8627 82.795 75.0927 82.965C75.3227 83.125 75.6377 83.205 76.0377 83.205C76.2077 83.205 76.3977 83.175 76.6077 83.115C76.8177 83.055 76.9927 82.985 77.1327 82.905C77.1927 82.965 77.2477 83.04 77.2977 83.13C77.3477 83.22 77.3727 83.325 77.3727 83.445C77.3727 83.665 77.2427 83.845 76.9827 83.985C76.7227 84.125 76.3627 84.195 75.9027 84.195C75.2027 84.195 74.6327 84.04 74.1927 83.73C73.7627 83.42 73.5477 82.905 73.5477 82.185V80.04ZM74.1627 78.21V77.22H77.2077C77.2377 77.26 77.2677 77.325 77.2977 77.415C77.3277 77.505 77.3427 77.6 77.3427 77.7C77.3427 77.86 77.3027 77.985 77.2227 78.075C77.1427 78.165 77.0327 78.21 76.8927 78.21H74.1627ZM74.7477 80.49H73.5477V75.06C73.5977 75.04 73.6727 75.02 73.7727 75C73.8827 74.97 73.9977 74.955 74.1177 74.955C74.3277 74.955 74.4827 75 74.5827 75.09C74.6927 75.17 74.7477 75.305 74.7477 75.495V80.49ZM81.6767 83.22C82.0967 83.22 82.4417 83.18 82.7117 83.1C82.9917 83.01 83.1917 82.925 83.3117 82.845V80.67L81.4517 80.865C80.9317 80.905 80.5467 81.02 80.2967 81.21C80.0467 81.4 79.9217 81.675 79.9217 82.035C79.9217 82.405 80.0667 82.695 80.3567 82.905C80.6567 83.115 81.0967 83.22 81.6767 83.22ZM81.6617 76.875C82.5317 76.875 83.2217 77.07 83.7317 77.46C84.2417 77.85 84.4967 78.465 84.4967 79.305V82.86C84.4967 83.08 84.4517 83.25 84.3617 83.37C84.2817 83.48 84.1567 83.585 83.9867 83.685C83.7467 83.815 83.4267 83.935 83.0267 84.045C82.6267 84.155 82.1767 84.21 81.6767 84.21C80.7367 84.21 80.0067 84.025 79.4867 83.655C78.9767 83.285 78.7217 82.75 78.7217 82.05C78.7217 81.4 78.9367 80.905 79.3667 80.565C79.8067 80.215 80.4117 80.005 81.1817 79.935L83.3117 79.725V79.305C83.3117 78.805 83.1617 78.44 82.8617 78.21C82.5617 77.98 82.1567 77.865 81.6467 77.865C81.2367 77.865 80.8417 77.925 80.4617 78.045C80.0917 78.165 79.7617 78.3 79.4717 78.45C79.3917 78.38 79.3167 78.3 79.2467 78.21C79.1867 78.11 79.1567 78.01 79.1567 77.91C79.1567 77.65 79.3017 77.45 79.5917 77.31C79.8617 77.17 80.1717 77.065 80.5217 76.995C80.8817 76.915 81.2617 76.875 81.6617 76.875ZM87.887 78.36V80.73H86.687V78.45C86.687 78.22 86.727 78.04 86.807 77.91C86.897 77.77 87.042 77.635 87.242 77.505C87.502 77.335 87.857 77.19 88.307 77.07C88.757 76.94 89.257 76.875 89.807 76.875C90.607 76.875 91.007 77.075 91.007 77.475C91.007 77.575 90.992 77.67 90.962 77.76C90.932 77.84 90.892 77.91 90.842 77.97C90.742 77.95 90.612 77.93 90.452 77.91C90.292 77.89 90.132 77.88 89.972 77.88C89.512 77.88 89.107 77.93 88.757 78.03C88.407 78.12 88.117 78.23 87.887 78.36ZM86.687 80.04L87.887 80.22V83.97C87.837 83.99 87.762 84.01 87.662 84.03C87.562 84.06 87.452 84.075 87.332 84.075C87.122 84.075 86.962 84.035 86.852 83.955C86.742 83.865 86.687 83.725 86.687 83.535V80.04ZM51.6939 95.88C51.0139 95.88 50.4489 96.11 49.9989 96.57C49.5489 97.03 49.3239 97.69 49.3239 98.55C49.3239 99.4 49.5389 100.055 49.9689 100.515C50.4089 100.975 50.9839 101.205 51.6939 101.205C52.1139 101.205 52.4639 101.15 52.7439 101.04C53.0239 100.92 53.2739 100.785 53.4939 100.635C53.6039 100.695 53.6939 100.77 53.7639 100.86C53.8339 100.95 53.8689 101.06 53.8689 101.19C53.8689 101.47 53.6589 101.71 53.2389 101.91C52.8289 102.1 52.3139 102.195 51.6939 102.195C51.0039 102.195 50.3839 102.065 49.8339 101.805C49.2939 101.535 48.8689 101.13 48.5589 100.59C48.2489 100.05 48.0939 99.37 48.0939 98.55C48.0939 97.74 48.2539 97.065 48.5739 96.525C48.8939 95.975 49.3239 95.565 49.8639 95.295C50.4139 95.015 51.0139 94.875 51.6639 94.875C52.2839 94.875 52.7939 94.98 53.1939 95.19C53.6039 95.4 53.8089 95.64 53.8089 95.91C53.8089 96.03 53.7739 96.135 53.7039 96.225C53.6339 96.315 53.5439 96.385 53.4339 96.435C53.2139 96.285 52.9689 96.155 52.6989 96.045C52.4389 95.935 52.1039 95.88 51.6939 95.88ZM58.1806 101.22C58.6006 101.22 58.9456 101.18 59.2156 101.1C59.4956 101.01 59.6956 100.925 59.8156 100.845V98.67L57.9556 98.865C57.4356 98.905 57.0506 99.02 56.8006 99.21C56.5506 99.4 56.4256 99.675 56.4256 100.035C56.4256 100.405 56.5706 100.695 56.8606 100.905C57.1606 101.115 57.6006 101.22 58.1806 101.22ZM58.1656 94.875C59.0356 94.875 59.7256 95.07 60.2356 95.46C60.7456 95.85 61.0006 96.465 61.0006 97.305V100.86C61.0006 101.08 60.9556 101.25 60.8656 101.37C60.7856 101.48 60.6606 101.585 60.4906 101.685C60.2506 101.815 59.9306 101.935 59.5306 102.045C59.1306 102.155 58.6806 102.21 58.1806 102.21C57.2406 102.21 56.5106 102.025 55.9906 101.655C55.4806 101.285 55.2256 100.75 55.2256 100.05C55.2256 99.4 55.4406 98.905 55.8706 98.565C56.3106 98.215 56.9156 98.005 57.6856 97.935L59.8156 97.725V97.305C59.8156 96.805 59.6656 96.44 59.3656 96.21C59.0656 95.98 58.6606 95.865 58.1506 95.865C57.7406 95.865 57.3456 95.925 56.9656 96.045C56.5956 96.165 56.2656 96.3 55.9756 96.45C55.8956 96.38 55.8206 96.3 55.7506 96.21C55.6906 96.11 55.6606 96.01 55.6606 95.91C55.6606 95.65 55.8056 95.45 56.0956 95.31C56.3656 95.17 56.6756 95.065 57.0256 94.995C57.3856 94.915 57.7656 94.875 58.1656 94.875ZM57.0856 92.235C57.3656 92.235 57.6156 92.28 57.8356 92.37C58.0656 92.45 58.2756 92.535 58.4656 92.625C58.6656 92.705 58.8506 92.745 59.0206 92.745C59.2006 92.745 59.3306 92.69 59.4106 92.58C59.5006 92.47 59.5656 92.335 59.6056 92.175H59.6956C59.8756 92.175 60.0356 92.22 60.1756 92.31C60.3156 92.39 60.3856 92.535 60.3856 92.745C60.3856 93.025 60.2856 93.25 60.0856 93.42C59.8856 93.59 59.6206 93.675 59.2906 93.675C59.0106 93.675 58.7506 93.63 58.5106 93.54C58.2706 93.45 58.0506 93.365 57.8506 93.285C57.6506 93.195 57.4706 93.15 57.3106 93.15C57.1306 93.15 57.0006 93.205 56.9206 93.315C56.8406 93.425 56.7806 93.565 56.7406 93.735H56.6506C56.4706 93.735 56.3106 93.69 56.1706 93.6C56.0306 93.51 55.9606 93.365 55.9606 93.165C55.9606 92.965 56.0106 92.8 56.1106 92.67C56.2206 92.53 56.3606 92.425 56.5306 92.355C56.7106 92.275 56.8956 92.235 57.0856 92.235ZM63.6259 99.3L63.5659 98.355L68.0959 97.74C68.0559 97.19 67.8659 96.74 67.5259 96.39C67.1859 96.03 66.7159 95.85 66.1159 95.85C65.4959 95.85 64.9809 96.075 64.5709 96.525C64.1709 96.965 63.9709 97.6 63.9709 98.43V98.76C64.0409 99.56 64.3009 100.17 64.7509 100.59C65.2109 101 65.8359 101.205 66.6259 101.205C67.0459 101.205 67.4259 101.135 67.7659 100.995C68.1059 100.855 68.3759 100.705 68.5759 100.545C68.6859 100.615 68.7709 100.7 68.8309 100.8C68.9009 100.89 68.9359 100.995 68.9359 101.115C68.9359 101.305 68.8259 101.485 68.6059 101.655C68.3959 101.815 68.1109 101.945 67.7509 102.045C67.4009 102.145 67.0059 102.195 66.5659 102.195C65.7959 102.195 65.1259 102.055 64.5559 101.775C63.9959 101.495 63.5609 101.08 63.2509 100.53C62.9509 99.97 62.8009 99.29 62.8009 98.49C62.8009 97.92 62.8809 97.415 63.0409 96.975C63.2109 96.525 63.4409 96.145 63.7309 95.835C64.0309 95.525 64.3859 95.29 64.7959 95.13C65.2059 94.96 65.6509 94.875 66.1309 94.875C66.7409 94.875 67.2759 95.005 67.7359 95.265C68.2059 95.525 68.5709 95.89 68.8309 96.36C69.1009 96.82 69.2359 97.35 69.2359 97.95C69.2359 98.17 69.1859 98.33 69.0859 98.43C68.9859 98.52 68.8459 98.575 68.6659 98.595L63.6259 99.3ZM75.9471 100.155C75.9471 100.795 75.7121 101.295 75.2421 101.655C74.7721 102.015 74.0921 102.195 73.2021 102.195C72.4421 102.195 71.8221 102.08 71.3421 101.85C70.8621 101.61 70.6221 101.35 70.6221 101.07C70.6221 100.95 70.6521 100.835 70.7121 100.725C70.7821 100.605 70.8821 100.51 71.0121 100.44C71.2821 100.63 71.5971 100.805 71.9571 100.965C72.3171 101.125 72.7271 101.205 73.1871 101.205C74.2271 101.205 74.7471 100.855 74.7471 100.155C74.7471 99.865 74.6571 99.63 74.4771 99.45C74.3071 99.26 74.0521 99.125 73.7121 99.045L72.4671 98.715C71.8571 98.565 71.4121 98.335 71.1321 98.025C70.8521 97.705 70.7121 97.31 70.7121 96.84C70.7121 96.31 70.9271 95.85 71.3571 95.46C71.7871 95.07 72.4421 94.875 73.3221 94.875C73.7921 94.875 74.2021 94.925 74.5521 95.025C74.9021 95.115 75.1721 95.24 75.3621 95.4C75.5621 95.55 75.6621 95.715 75.6621 95.895C75.6621 96.025 75.6271 96.14 75.5571 96.24C75.4971 96.34 75.4121 96.415 75.3021 96.465C75.1821 96.385 75.0271 96.3 74.8371 96.21C74.6571 96.11 74.4421 96.03 74.1921 95.97C73.9421 95.9 73.6671 95.865 73.3671 95.865C72.9271 95.865 72.5721 95.95 72.3021 96.12C72.0321 96.29 71.8971 96.53 71.8971 96.84C71.8971 97.06 71.9721 97.255 72.1221 97.425C72.2821 97.585 72.5321 97.705 72.8721 97.785L73.9071 98.04C74.5871 98.2 75.0971 98.455 75.4371 98.805C75.7771 99.145 75.9471 99.595 75.9471 100.155Z" fill="#741FFF"/>
<path d="M57.8096 18C53.9636 18 50.2039 19.1405 47.006 21.2772C43.8081 23.414 41.3157 26.451 39.8439 30.0043C38.3721 33.5576 37.987 37.4675 38.7373 41.2397C39.4876 45.0118 41.3397 48.4767 44.0592 51.1963C46.7788 53.9159 50.2437 55.7679 54.0159 56.5182C57.788 57.2686 61.698 56.8835 65.2512 55.4116C68.8045 53.9398 71.8416 51.4474 73.9783 48.2495C76.1151 45.0517 77.2555 41.292 77.2555 37.4459C77.2552 32.2887 75.2063 27.3427 71.5596 23.6959C67.9128 20.0492 62.9669 18.0003 57.8096 18Z" stroke="#741FFF" stroke-width="4.8721" stroke-miterlimit="10"/>
<path d="M72.3176 51.954L85.8985 65.5348" stroke="#741FFF" stroke-width="4.8721" stroke-miterlimit="10" stroke-linecap="round"/>
</svg>
