<svg width="153" height="153" viewBox="0 0 153 153" fill="none" xmlns="http://www.w3.org/2000/svg">
<rect width="153" height="153" fill="white"/>
<path d="M26.8327 122.68H28.4527V129.84C28.3994 129.853 28.2994 129.887 28.1527 129.94C28.0061 129.98 27.8594 130 27.7127 130C27.4461 130 27.2327 129.92 27.0727 129.76C26.9127 129.587 26.8327 129.373 26.8327 129.12V122.68ZM28.4527 125.04L26.8327 125.02V118.72C26.8327 118.453 26.9127 118.24 27.0727 118.08C27.2327 117.92 27.4461 117.84 27.7127 117.84C27.8594 117.84 28.0061 117.86 28.1527 117.9C28.2994 117.94 28.3994 117.973 28.4527 118V125.04ZM27.7127 124.44V123.08H33.7327C33.7727 123.133 33.8127 123.22 33.8527 123.34C33.8927 123.46 33.9127 123.587 33.9127 123.72C33.9127 123.933 33.8594 124.107 33.7527 124.24C33.6461 124.373 33.4927 124.44 33.2927 124.44H27.7127ZM27.7127 130V128.64H34.4527C34.4927 128.693 34.5327 128.78 34.5727 128.9C34.6127 129.007 34.6327 129.133 34.6327 129.28C34.6327 129.493 34.5794 129.667 34.4727 129.8C34.3661 129.933 34.2127 130 34.0127 130H27.7127ZM27.7127 119.22V117.84H34.3527C34.3927 117.893 34.4327 117.98 34.4727 118.1C34.5127 118.22 34.5327 118.347 34.5327 118.48C34.5327 118.693 34.4794 118.873 34.3727 119.02C34.2661 119.153 34.1127 119.22 33.9127 119.22H27.7127ZM43.1262 128.42V121.7L44.7262 121.68V128.48C44.7262 128.733 44.6662 128.94 44.5462 129.1C44.4395 129.247 44.2662 129.393 44.0262 129.54C43.7595 129.713 43.3795 129.873 42.8862 130.02C42.3928 130.18 41.8262 130.26 41.1862 130.26C40.2262 130.26 39.3795 130.093 38.6462 129.76C37.9128 129.427 37.3395 128.907 36.9262 128.2C36.5128 127.48 36.3062 126.553 36.3062 125.42C36.3062 124.26 36.5062 123.32 36.9062 122.6C37.3195 121.88 37.8728 121.353 38.5662 121.02C39.2595 120.673 40.0195 120.5 40.8462 120.5C41.3662 120.5 41.8595 120.573 42.3262 120.72C42.7928 120.867 43.1595 121.047 43.4262 121.26V122.74C43.1728 122.487 42.8395 122.273 42.4262 122.1C42.0262 121.913 41.5528 121.82 41.0062 121.82C40.4595 121.82 39.9528 121.94 39.4862 122.18C39.0195 122.407 38.6462 122.787 38.3662 123.32C38.0862 123.853 37.9462 124.567 37.9462 125.46C37.9462 126.673 38.2395 127.56 38.8262 128.12C39.4128 128.667 40.1928 128.94 41.1662 128.94C41.6328 128.94 42.0128 128.893 42.3062 128.8C42.6128 128.693 42.8862 128.567 43.1262 128.42ZM44.7262 122.08L43.1262 122.1V117.04C43.1928 117.013 43.2928 116.987 43.4262 116.96C43.5728 116.92 43.7195 116.9 43.8662 116.9C44.1595 116.9 44.3728 116.96 44.5062 117.08C44.6528 117.187 44.7262 117.367 44.7262 117.62V122.08ZM47.6237 117.84C47.6237 117.56 47.7237 117.327 47.9237 117.14C48.1237 116.94 48.3703 116.84 48.6637 116.84C48.9703 116.84 49.217 116.94 49.4037 117.14C49.5903 117.327 49.6837 117.56 49.6837 117.84C49.6837 118.12 49.5903 118.36 49.4037 118.56C49.217 118.747 48.9703 118.84 48.6637 118.84C48.3703 118.84 48.1237 118.747 47.9237 118.56C47.7237 118.36 47.6237 118.12 47.6237 117.84ZM47.8637 124.72H49.4637V129.96C49.397 129.987 49.297 130.013 49.1637 130.04C49.0303 130.08 48.8837 130.1 48.7237 130.1C48.4437 130.1 48.2303 130.047 48.0837 129.94C47.937 129.82 47.8637 129.633 47.8637 129.38V124.72ZM49.4637 125.5H47.8637V120.8C47.9303 120.773 48.0303 120.747 48.1637 120.72C48.3103 120.68 48.4637 120.66 48.6237 120.66C48.9037 120.66 49.1103 120.72 49.2437 120.84C49.3903 120.947 49.4637 121.133 49.4637 121.4V125.5ZM52.6079 124.72H54.2079V127.48C54.2079 128.013 54.3612 128.393 54.6679 128.62C54.9746 128.833 55.3946 128.94 55.9279 128.94C56.1546 128.94 56.4079 128.9 56.6879 128.82C56.9679 128.74 57.2012 128.647 57.3879 128.54C57.4679 128.62 57.5412 128.72 57.6079 128.84C57.6746 128.96 57.7079 129.1 57.7079 129.26C57.7079 129.553 57.5346 129.793 57.1879 129.98C56.8412 130.167 56.3612 130.26 55.7479 130.26C54.8146 130.26 54.0546 130.053 53.4679 129.64C52.8946 129.227 52.6079 128.54 52.6079 127.58V124.72ZM53.4279 122.28V120.96H57.4879C57.5279 121.013 57.5679 121.1 57.6079 121.22C57.6479 121.34 57.6679 121.467 57.6679 121.6C57.6679 121.813 57.6146 121.98 57.5079 122.1C57.4012 122.22 57.2546 122.28 57.0679 122.28H53.4279ZM54.2079 125.32H52.6079V118.08C52.6746 118.053 52.7746 118.027 52.9079 118C53.0546 117.96 53.2079 117.94 53.3679 117.94C53.6479 117.94 53.8546 118 53.9879 118.12C54.1346 118.227 54.2079 118.407 54.2079 118.66V125.32ZM63.4465 128.96C64.0065 128.96 64.4665 128.907 64.8265 128.8C65.1998 128.68 65.4665 128.567 65.6265 128.46V125.56L63.1465 125.82C62.4532 125.873 61.9398 126.027 61.6065 126.28C61.2732 126.533 61.1065 126.9 61.1065 127.38C61.1065 127.873 61.2998 128.26 61.6865 128.54C62.0865 128.82 62.6732 128.96 63.4465 128.96ZM63.4265 120.5C64.5865 120.5 65.5065 120.76 66.1865 121.28C66.8665 121.8 67.2065 122.62 67.2065 123.74V128.48C67.2065 128.773 67.1465 129 67.0265 129.16C66.9198 129.307 66.7532 129.447 66.5265 129.58C66.2065 129.753 65.7798 129.913 65.2465 130.06C64.7132 130.207 64.1132 130.28 63.4465 130.28C62.1932 130.28 61.2198 130.033 60.5265 129.54C59.8465 129.047 59.5065 128.333 59.5065 127.4C59.5065 126.533 59.7932 125.873 60.3665 125.42C60.9532 124.953 61.7598 124.673 62.7865 124.58L65.6265 124.3V123.74C65.6265 123.073 65.4265 122.587 65.0265 122.28C64.6265 121.973 64.0865 121.82 63.4065 121.82C62.8598 121.82 62.3332 121.9 61.8265 122.06C61.3332 122.22 60.8932 122.4 60.5065 122.6C60.3998 122.507 60.2998 122.4 60.2065 122.28C60.1265 122.147 60.0865 122.013 60.0865 121.88C60.0865 121.533 60.2798 121.267 60.6665 121.08C61.0265 120.893 61.4398 120.753 61.9065 120.66C62.3865 120.553 62.8932 120.5 63.4265 120.5ZM71.727 122.48V125.64H70.127V122.6C70.127 122.293 70.1803 122.053 70.287 121.88C70.407 121.693 70.6003 121.513 70.867 121.34C71.2136 121.113 71.687 120.92 72.287 120.76C72.887 120.587 73.5536 120.5 74.287 120.5C75.3536 120.5 75.887 120.767 75.887 121.3C75.887 121.433 75.867 121.56 75.827 121.68C75.787 121.787 75.7336 121.88 75.667 121.96C75.5336 121.933 75.3603 121.907 75.147 121.88C74.9336 121.853 74.7203 121.84 74.507 121.84C73.8936 121.84 73.3536 121.907 72.887 122.04C72.4203 122.16 72.0336 122.307 71.727 122.48ZM70.127 124.72L71.727 124.96V129.96C71.6603 129.987 71.5603 130.013 71.427 130.04C71.2936 130.08 71.147 130.1 70.987 130.1C70.707 130.1 70.4936 130.047 70.347 129.94C70.2003 129.82 70.127 129.633 70.127 129.38V124.72ZM85.7076 130.26C85.1342 130.26 84.5942 130.173 84.0876 130C83.5942 129.84 83.2342 129.66 83.0076 129.46V127.98C83.2742 128.233 83.6076 128.46 84.0076 128.66C84.4209 128.847 84.9142 128.94 85.4876 128.94C86.4209 128.94 87.1676 128.66 87.7276 128.1C88.3009 127.527 88.5876 126.613 88.5876 125.36C88.5876 124.48 88.4409 123.787 88.1476 123.28C87.8676 122.76 87.4876 122.387 87.0076 122.16C86.5409 121.933 86.0342 121.82 85.4876 121.82C85.0076 121.82 84.6009 121.88 84.2676 122C83.9342 122.12 83.6342 122.253 83.3676 122.4V129.04H81.7676V122.44C81.7676 122.173 81.8142 121.96 81.9076 121.8C82.0009 121.64 82.1942 121.473 82.4876 121.3C82.8476 121.1 83.2742 120.92 83.7676 120.76C84.2742 120.587 84.8476 120.5 85.4876 120.5C86.3676 120.5 87.1609 120.673 87.8676 121.02C88.5876 121.353 89.1542 121.88 89.5676 122.6C89.9942 123.307 90.2076 124.227 90.2076 125.36C90.2076 126.453 90.0142 127.367 89.6276 128.1C89.2542 128.82 88.7276 129.36 88.0476 129.72C87.3676 130.08 86.5876 130.26 85.7076 130.26ZM83.3676 128.5V133.6C83.3009 133.627 83.2009 133.653 83.0676 133.68C82.9342 133.72 82.7876 133.74 82.6276 133.74C82.3476 133.74 82.1342 133.68 81.9876 133.56C81.8409 133.44 81.7676 133.253 81.7676 133V128.46L83.3676 128.5ZM93.2655 126.4L93.1855 125.14L99.2255 124.32C99.1722 123.587 98.9189 122.987 98.4655 122.52C98.0122 122.04 97.3855 121.8 96.5855 121.8C95.7589 121.8 95.0722 122.1 94.5255 122.7C93.9922 123.287 93.7255 124.133 93.7255 125.24V125.68C93.8189 126.747 94.1655 127.56 94.7655 128.12C95.3789 128.667 96.2122 128.94 97.2655 128.94C97.8255 128.94 98.3322 128.847 98.7855 128.66C99.2389 128.473 99.5989 128.273 99.8655 128.06C100.012 128.153 100.126 128.267 100.206 128.4C100.299 128.52 100.346 128.66 100.346 128.82C100.346 129.073 100.199 129.313 99.9055 129.54C99.6255 129.753 99.2455 129.927 98.7655 130.06C98.2989 130.193 97.7722 130.26 97.1855 130.26C96.1589 130.26 95.2655 130.073 94.5055 129.7C93.7589 129.327 93.1789 128.773 92.7655 128.04C92.3655 127.293 92.1655 126.387 92.1655 125.32C92.1655 124.56 92.2722 123.887 92.4855 123.3C92.7122 122.7 93.0189 122.193 93.4055 121.78C93.8055 121.367 94.2789 121.053 94.8255 120.84C95.3722 120.613 95.9655 120.5 96.6055 120.5C97.4189 120.5 98.1322 120.673 98.7455 121.02C99.3722 121.367 99.8589 121.853 100.206 122.48C100.566 123.093 100.746 123.8 100.746 124.6C100.746 124.893 100.679 125.107 100.546 125.24C100.412 125.36 100.226 125.433 99.9855 125.46L93.2655 126.4ZM104.657 122.48V125.64H103.057V122.6C103.057 122.293 103.11 122.053 103.217 121.88C103.337 121.693 103.53 121.513 103.797 121.34C104.143 121.113 104.617 120.92 105.217 120.76C105.817 120.587 106.483 120.5 107.217 120.5C108.283 120.5 108.817 120.767 108.817 121.3C108.817 121.433 108.797 121.56 108.757 121.68C108.717 121.787 108.663 121.88 108.597 121.96C108.463 121.933 108.29 121.907 108.077 121.88C107.863 121.853 107.65 121.84 107.437 121.84C106.823 121.84 106.283 121.907 105.817 122.04C105.35 122.16 104.963 122.307 104.657 122.48ZM103.057 124.72L104.657 124.96V129.96C104.59 129.987 104.49 130.013 104.357 130.04C104.223 130.08 104.077 130.1 103.917 130.1C103.637 130.1 103.423 130.047 103.277 129.94C103.13 129.82 103.057 129.633 103.057 129.38V124.72ZM112.033 122.58V121.28H116.273C116.313 121.333 116.353 121.42 116.393 121.54C116.433 121.647 116.453 121.773 116.453 121.92C116.453 122.133 116.4 122.3 116.293 122.42C116.187 122.527 116.033 122.58 115.833 122.58H112.033ZM112.313 120.02V122.36H110.733V119.94C110.733 119.153 110.873 118.52 111.153 118.04C111.447 117.547 111.86 117.187 112.393 116.96C112.94 116.72 113.587 116.6 114.333 116.6C115.093 116.6 115.687 116.7 116.113 116.9C116.553 117.1 116.773 117.347 116.773 117.64C116.773 117.787 116.74 117.92 116.673 118.04C116.62 118.16 116.54 118.273 116.433 118.38C116.193 118.247 115.893 118.14 115.533 118.06C115.173 117.967 114.827 117.92 114.493 117.92C113.68 117.92 113.113 118.087 112.793 118.42C112.473 118.753 112.313 119.287 112.313 120.02ZM110.733 121.48H112.333V129.96C112.267 129.987 112.167 130.013 112.033 130.04C111.9 130.08 111.753 130.1 111.593 130.1C111.313 130.1 111.1 130.047 110.953 129.94C110.807 129.82 110.733 129.633 110.733 129.38V121.48ZM118.533 117.84C118.533 117.56 118.633 117.327 118.833 117.14C119.033 116.94 119.28 116.84 119.573 116.84C119.88 116.84 120.127 116.94 120.313 117.14C120.5 117.327 120.593 117.56 120.593 117.84C120.593 118.12 120.5 118.36 120.313 118.56C120.127 118.747 119.88 118.84 119.573 118.84C119.28 118.84 119.033 118.747 118.833 118.56C118.633 118.36 118.533 118.12 118.533 117.84ZM118.773 124.72H120.373V129.96C120.307 129.987 120.207 130.013 120.073 130.04C119.94 130.08 119.793 130.1 119.633 130.1C119.353 130.1 119.14 130.047 118.993 129.94C118.847 129.82 118.773 129.633 118.773 129.38V124.72ZM120.373 125.5H118.773V120.8C118.84 120.773 118.94 120.747 119.073 120.72C119.22 120.68 119.373 120.66 119.533 120.66C119.813 120.66 120.02 120.72 120.153 120.84C120.3 120.947 120.373 121.133 120.373 121.4V125.5ZM123.685 124.72L125.285 124.96V129.96C125.219 129.987 125.119 130.013 124.985 130.04C124.852 130.08 124.705 130.1 124.545 130.1C124.265 130.1 124.052 130.047 123.905 129.94C123.759 129.82 123.685 129.633 123.685 129.38V124.72ZM125.285 125.72L123.685 125.5V117.04C123.752 117.013 123.852 116.987 123.985 116.96C124.132 116.92 124.279 116.9 124.425 116.9C124.719 116.9 124.932 116.96 125.065 117.08C125.212 117.187 125.285 117.367 125.285 117.62V125.72Z" fill="#741FFF"/>
<rect x="1" y="1" width="151" height="151" rx="9" stroke="#741FFF" stroke-opacity="0.4" stroke-width="2"/>
<path d="M76.0001 71.625C65.169 71.625 55.537 76.2807 49.4047 83.5057C48.0849 85.0607 47.425 85.8382 47.4466 86.8889C47.4632 87.7008 48.0359 88.7249 48.7534 89.2262C49.6821 89.875 50.9691 89.875 53.5431 89.875H98.457C101.031 89.875 102.318 89.875 103.247 89.2262C103.964 88.7249 104.537 87.7008 104.554 86.8889C104.575 85.8382 103.915 85.0607 102.595 83.5057C96.4632 76.2807 86.8312 71.625 76.0001 71.625Z" stroke="#9859FF" stroke-width="2" stroke-linecap="round" stroke-linejoin="round"/>
<path d="M76.0001 62.5C84.4914 62.5 91.3751 56.3719 91.3751 48.8125C91.3751 41.2531 84.4914 35.125 76.0001 35.125C67.5087 35.125 60.6251 41.2531 60.6251 48.8125C60.6251 56.3719 67.5087 62.5 76.0001 62.5Z" stroke="#9859FF" stroke-width="2" stroke-linecap="round" stroke-linejoin="round"/>
</svg>
