<svg width="153" height="153" viewBox="0 0 153 153" fill="none" xmlns="http://www.w3.org/2000/svg">
<rect width="153" height="153" fill="white"/>
<path d="M17.6823 122.68H19.3023V129.84C19.249 129.853 19.149 129.887 19.0023 129.94C18.8557 129.98 18.709 130 18.5623 130C18.2957 130 18.0823 129.92 17.9223 129.76C17.7623 129.587 17.6823 129.373 17.6823 129.12V122.68ZM19.3023 125.04L17.6823 125.02V118.72C17.6823 118.453 17.7623 118.24 17.9223 118.08C18.0823 117.92 18.2957 117.84 18.5623 117.84C18.709 117.84 18.8557 117.86 19.0023 117.9C19.149 117.94 19.249 117.973 19.3023 118V125.04ZM18.5623 124.44V123.08H24.5823C24.6223 123.133 24.6623 123.22 24.7023 123.34C24.7423 123.46 24.7623 123.587 24.7623 123.72C24.7623 123.933 24.709 124.107 24.6023 124.24C24.4957 124.373 24.3423 124.44 24.1423 124.44H18.5623ZM18.5623 130V128.64H25.3023C25.3423 128.693 25.3823 128.78 25.4223 128.9C25.4623 129.007 25.4823 129.133 25.4823 129.28C25.4823 129.493 25.429 129.667 25.3223 129.8C25.2157 129.933 25.0623 130 24.8623 130H18.5623ZM18.5623 119.22V117.84H25.2023C25.2423 117.893 25.2823 117.98 25.3223 118.1C25.3623 118.22 25.3823 118.347 25.3823 118.48C25.3823 118.693 25.329 118.873 25.2223 119.02C25.1157 119.153 24.9623 119.22 24.7623 119.22H18.5623ZM35.9688 123.9V125.94H34.3688V123.98C34.3688 123.233 34.1554 122.687 33.7288 122.34C33.3154 121.993 32.7554 121.82 32.0488 121.82C31.5154 121.82 31.0421 121.887 30.6288 122.02C30.2154 122.153 29.8621 122.307 29.5688 122.48V125.94H27.9688V122.56C27.9688 122.28 28.0221 122.053 28.1288 121.88C28.2488 121.693 28.4488 121.513 28.7288 121.34C29.0754 121.14 29.5354 120.953 30.1088 120.78C30.6821 120.593 31.3288 120.5 32.0488 120.5C33.2621 120.5 34.2154 120.78 34.9088 121.34C35.6154 121.887 35.9688 122.74 35.9688 123.9ZM27.9688 124.84H29.5688V129.96C29.5021 129.987 29.4021 130.013 29.2688 130.04C29.1354 130.08 28.9888 130.1 28.8288 130.1C28.5488 130.1 28.3354 130.047 28.1888 129.94C28.0421 129.82 27.9688 129.633 27.9688 129.38V124.84ZM34.3688 124.84H35.9688V129.96C35.9021 129.987 35.7954 130.013 35.6488 130.04C35.5154 130.08 35.3754 130.1 35.2288 130.1C34.9354 130.1 34.7154 130.047 34.5688 129.94C34.4354 129.82 34.3688 129.633 34.3688 129.38V124.84ZM43.2448 121.84C42.3382 121.84 41.5848 122.147 40.9848 122.76C40.3848 123.373 40.0848 124.253 40.0848 125.4C40.0848 126.533 40.3715 127.407 40.9448 128.02C41.5315 128.633 42.2982 128.94 43.2448 128.94C43.8048 128.94 44.2715 128.867 44.6448 128.72C45.0182 128.56 45.3515 128.38 45.6448 128.18C45.7915 128.26 45.9115 128.36 46.0048 128.48C46.0982 128.6 46.1448 128.747 46.1448 128.92C46.1448 129.293 45.8648 129.613 45.3048 129.88C44.7582 130.133 44.0715 130.26 43.2448 130.26C42.3248 130.26 41.4982 130.087 40.7648 129.74C40.0448 129.38 39.4782 128.84 39.0648 128.12C38.6515 127.4 38.4448 126.493 38.4448 125.4C38.4448 124.32 38.6582 123.42 39.0848 122.7C39.5115 121.967 40.0848 121.42 40.8048 121.06C41.5382 120.687 42.3382 120.5 43.2048 120.5C44.0315 120.5 44.7115 120.64 45.2448 120.92C45.7915 121.2 46.0648 121.52 46.0648 121.88C46.0648 122.04 46.0182 122.18 45.9248 122.3C45.8315 122.42 45.7115 122.513 45.5648 122.58C45.2715 122.38 44.9448 122.207 44.5848 122.06C44.2382 121.913 43.7915 121.84 43.2448 121.84ZM56.8613 125.38C56.8613 126.367 56.6746 127.227 56.3013 127.96C55.9279 128.693 55.4013 129.26 54.7213 129.66C54.0413 130.06 53.2413 130.26 52.3213 130.26C51.4013 130.26 50.5946 130.06 49.9013 129.66C49.2213 129.26 48.6946 128.693 48.3213 127.96C47.9479 127.227 47.7613 126.367 47.7613 125.38C47.7613 124.38 47.9479 123.52 48.3213 122.8C48.7079 122.067 49.2413 121.5 49.9213 121.1C50.6146 120.7 51.4146 120.5 52.3213 120.5C53.2279 120.5 54.0213 120.7 54.7013 121.1C55.3813 121.5 55.9079 122.067 56.2813 122.8C56.6679 123.52 56.8613 124.38 56.8613 125.38ZM52.3213 121.82C51.4279 121.82 50.7146 122.14 50.1813 122.78C49.6613 123.407 49.4013 124.273 49.4013 125.38C49.4013 126.5 49.6546 127.373 50.1613 128C50.6813 128.627 51.4013 128.94 52.3213 128.94C53.2279 128.94 53.9346 128.627 54.4413 128C54.9613 127.36 55.2213 126.487 55.2213 125.38C55.2213 124.273 54.9613 123.407 54.4413 122.78C53.9346 122.14 53.2279 121.82 52.3213 121.82ZM67.3359 123.9V125.94H65.7359V123.98C65.7359 123.233 65.5226 122.687 65.0959 122.34C64.6826 121.993 64.1226 121.82 63.4159 121.82C62.8826 121.82 62.4093 121.887 61.9959 122.02C61.5826 122.153 61.2293 122.307 60.9359 122.48V125.94H59.3359V122.56C59.3359 122.28 59.3893 122.053 59.4959 121.88C59.6159 121.693 59.8159 121.513 60.0959 121.34C60.4426 121.14 60.9026 120.953 61.4759 120.78C62.0493 120.593 62.6959 120.5 63.4159 120.5C64.6293 120.5 65.5826 120.78 66.2759 121.34C66.9826 121.887 67.3359 122.74 67.3359 123.9ZM59.3359 124.84H60.9359V129.96C60.8693 129.987 60.7693 130.013 60.6359 130.04C60.5026 130.08 60.3559 130.1 60.1959 130.1C59.9159 130.1 59.7026 130.047 59.5559 129.94C59.4093 129.82 59.3359 129.633 59.3359 129.38V124.84ZM65.7359 124.84H67.3359V129.96C67.2693 129.987 67.1626 130.013 67.0159 130.04C66.8826 130.08 66.7426 130.1 66.5959 130.1C66.3026 130.1 66.0826 130.047 65.9359 129.94C65.8026 129.82 65.7359 129.633 65.7359 129.38V124.84ZM70.352 124.72H71.952V127.48C71.952 128.013 72.1054 128.393 72.412 128.62C72.7187 128.833 73.1387 128.94 73.672 128.94C73.8987 128.94 74.152 128.9 74.432 128.82C74.712 128.74 74.9454 128.647 75.132 128.54C75.212 128.62 75.2854 128.72 75.352 128.84C75.4187 128.96 75.452 129.1 75.452 129.26C75.452 129.553 75.2787 129.793 74.932 129.98C74.5854 130.167 74.1054 130.26 73.492 130.26C72.5587 130.26 71.7987 130.053 71.212 129.64C70.6387 129.227 70.352 128.54 70.352 127.58V124.72ZM71.172 122.28V120.96H75.232C75.272 121.013 75.312 121.1 75.352 121.22C75.392 121.34 75.412 121.467 75.412 121.6C75.412 121.813 75.3587 121.98 75.252 122.1C75.1454 122.22 74.9987 122.28 74.812 122.28H71.172ZM71.952 125.32H70.352V118.08C70.4187 118.053 70.5187 118.027 70.652 118C70.7987 117.96 70.952 117.94 71.112 117.94C71.392 117.94 71.5987 118 71.732 118.12C71.8787 118.227 71.952 118.407 71.952 118.66V125.32ZM79.3734 122.48V125.64H77.7734V122.6C77.7734 122.293 77.8268 122.053 77.9334 121.88C78.0534 121.693 78.2468 121.513 78.5134 121.34C78.8601 121.113 79.3334 120.92 79.9334 120.76C80.5334 120.587 81.2001 120.5 81.9334 120.5C83.0001 120.5 83.5334 120.767 83.5334 121.3C83.5334 121.433 83.5134 121.56 83.4734 121.68C83.4334 121.787 83.3801 121.88 83.3134 121.96C83.1801 121.933 83.0068 121.907 82.7934 121.88C82.5801 121.853 82.3668 121.84 82.1534 121.84C81.5401 121.84 81.0001 121.907 80.5334 122.04C80.0668 122.16 79.6801 122.307 79.3734 122.48ZM77.7734 124.72L79.3734 124.96V129.96C79.3068 129.987 79.2068 130.013 79.0734 130.04C78.9401 130.08 78.7934 130.1 78.6334 130.1C78.3534 130.1 78.1401 130.047 77.9934 129.94C77.8468 129.82 77.7734 129.633 77.7734 129.38V124.72ZM88.6125 128.96C89.1725 128.96 89.6325 128.907 89.9925 128.8C90.3658 128.68 90.6325 128.567 90.7925 128.46V125.56L88.3125 125.82C87.6192 125.873 87.1058 126.027 86.7725 126.28C86.4392 126.533 86.2725 126.9 86.2725 127.38C86.2725 127.873 86.4658 128.26 86.8525 128.54C87.2525 128.82 87.8392 128.96 88.6125 128.96ZM88.5925 120.5C89.7525 120.5 90.6725 120.76 91.3525 121.28C92.0325 121.8 92.3725 122.62 92.3725 123.74V128.48C92.3725 128.773 92.3125 129 92.1925 129.16C92.0858 129.307 91.9192 129.447 91.6925 129.58C91.3725 129.753 90.9458 129.913 90.4125 130.06C89.8792 130.207 89.2792 130.28 88.6125 130.28C87.3592 130.28 86.3858 130.033 85.6925 129.54C85.0125 129.047 84.6725 128.333 84.6725 127.4C84.6725 126.533 84.9592 125.873 85.5325 125.42C86.1192 124.953 86.9258 124.673 87.9525 124.58L90.7925 124.3V123.74C90.7925 123.073 90.5925 122.587 90.1925 122.28C89.7925 121.973 89.2525 121.82 88.5725 121.82C88.0258 121.82 87.4992 121.9 86.9925 122.06C86.4992 122.22 86.0592 122.4 85.6725 122.6C85.5658 122.507 85.4658 122.4 85.3725 122.28C85.2925 122.147 85.2525 122.013 85.2525 121.88C85.2525 121.533 85.4458 121.267 85.8325 121.08C86.1925 120.893 86.6058 120.753 87.0725 120.66C87.5525 120.553 88.0592 120.5 88.5925 120.5ZM96.893 122.48V125.64H95.293V122.6C95.293 122.293 95.3463 122.053 95.453 121.88C95.573 121.693 95.7663 121.513 96.033 121.34C96.3796 121.113 96.853 120.92 97.453 120.76C98.053 120.587 98.7196 120.5 99.453 120.5C100.52 120.5 101.053 120.767 101.053 121.3C101.053 121.433 101.033 121.56 100.993 121.68C100.953 121.787 100.9 121.88 100.833 121.96C100.7 121.933 100.526 121.907 100.313 121.88C100.1 121.853 99.8863 121.84 99.673 121.84C99.0596 121.84 98.5196 121.907 98.053 122.04C97.5863 122.16 97.1996 122.307 96.893 122.48ZM95.293 124.72L96.893 124.96V129.96C96.8263 129.987 96.7263 130.013 96.593 130.04C96.4596 130.08 96.313 130.1 96.153 130.1C95.873 130.1 95.6596 130.047 95.513 129.94C95.3663 129.82 95.293 129.633 95.293 129.38V124.72ZM111.214 121.84C110.307 121.84 109.554 122.147 108.954 122.76C108.354 123.373 108.054 124.253 108.054 125.4C108.054 126.533 108.34 127.407 108.914 128.02C109.5 128.633 110.267 128.94 111.214 128.94C111.774 128.94 112.24 128.867 112.614 128.72C112.987 128.56 113.32 128.38 113.614 128.18C113.76 128.26 113.88 128.36 113.974 128.48C114.067 128.6 114.114 128.747 114.114 128.92C114.114 129.293 113.834 129.613 113.274 129.88C112.727 130.133 112.04 130.26 111.214 130.26C110.294 130.26 109.467 130.087 108.734 129.74C108.014 129.38 107.447 128.84 107.034 128.12C106.62 127.4 106.414 126.493 106.414 125.4C106.414 124.32 106.627 123.42 107.054 122.7C107.48 121.967 108.054 121.42 108.774 121.06C109.507 120.687 110.307 120.5 111.174 120.5C112 120.5 112.68 120.64 113.214 120.92C113.76 121.2 114.034 121.52 114.034 121.88C114.034 122.04 113.987 122.18 113.894 122.3C113.8 122.42 113.68 122.513 113.534 122.58C113.24 122.38 112.914 122.207 112.554 122.06C112.207 121.913 111.76 121.84 111.214 121.84ZM119.863 128.96C120.423 128.96 120.883 128.907 121.243 128.8C121.616 128.68 121.883 128.567 122.043 128.46V125.56L119.563 125.82C118.869 125.873 118.356 126.027 118.023 126.28C117.689 126.533 117.523 126.9 117.523 127.38C117.523 127.873 117.716 128.26 118.103 128.54C118.503 128.82 119.089 128.96 119.863 128.96ZM119.843 120.5C121.003 120.5 121.923 120.76 122.603 121.28C123.283 121.8 123.623 122.62 123.623 123.74V128.48C123.623 128.773 123.563 129 123.443 129.16C123.336 129.307 123.169 129.447 122.943 129.58C122.623 129.753 122.196 129.913 121.663 130.06C121.129 130.207 120.529 130.28 119.863 130.28C118.609 130.28 117.636 130.033 116.943 129.54C116.263 129.047 115.923 128.333 115.923 127.4C115.923 126.533 116.209 125.873 116.783 125.42C117.369 124.953 118.176 124.673 119.203 124.58L122.043 124.3V123.74C122.043 123.073 121.843 122.587 121.443 122.28C121.043 121.973 120.503 121.82 119.823 121.82C119.276 121.82 118.749 121.9 118.243 122.06C117.749 122.22 117.309 122.4 116.923 122.6C116.816 122.507 116.716 122.4 116.623 122.28C116.543 122.147 116.503 122.013 116.503 121.88C116.503 121.533 116.696 121.267 117.083 121.08C117.443 120.893 117.856 120.753 118.323 120.66C118.803 120.553 119.309 120.5 119.843 120.5ZM118.403 116.98C118.776 116.98 119.109 117.04 119.403 117.16C119.709 117.267 119.989 117.38 120.243 117.5C120.509 117.607 120.756 117.66 120.983 117.66C121.223 117.66 121.396 117.587 121.503 117.44C121.623 117.293 121.709 117.113 121.763 116.9H121.883C122.123 116.9 122.336 116.96 122.523 117.08C122.709 117.187 122.803 117.38 122.803 117.66C122.803 118.033 122.669 118.333 122.403 118.56C122.136 118.787 121.783 118.9 121.343 118.9C120.969 118.9 120.623 118.84 120.303 118.72C119.983 118.6 119.689 118.487 119.423 118.38C119.156 118.26 118.916 118.2 118.703 118.2C118.463 118.2 118.289 118.273 118.183 118.42C118.076 118.567 117.996 118.753 117.943 118.98H117.823C117.583 118.98 117.369 118.92 117.183 118.8C116.996 118.68 116.903 118.487 116.903 118.22C116.903 117.953 116.969 117.733 117.103 117.56C117.249 117.373 117.436 117.233 117.663 117.14C117.903 117.033 118.149 116.98 118.403 116.98ZM135.123 125.38C135.123 126.367 134.936 127.227 134.563 127.96C134.19 128.693 133.663 129.26 132.983 129.66C132.303 130.06 131.503 130.26 130.583 130.26C129.663 130.26 128.856 130.06 128.163 129.66C127.483 129.26 126.956 128.693 126.583 127.96C126.21 127.227 126.023 126.367 126.023 125.38C126.023 124.38 126.21 123.52 126.583 122.8C126.97 122.067 127.503 121.5 128.183 121.1C128.876 120.7 129.676 120.5 130.583 120.5C131.49 120.5 132.283 120.7 132.963 121.1C133.643 121.5 134.17 122.067 134.543 122.8C134.93 123.52 135.123 124.38 135.123 125.38ZM130.583 121.82C129.69 121.82 128.976 122.14 128.443 122.78C127.923 123.407 127.663 124.273 127.663 125.38C127.663 126.5 127.916 127.373 128.423 128C128.943 128.627 129.663 128.94 130.583 128.94C131.49 128.94 132.196 128.627 132.703 128C133.223 127.36 133.483 126.487 133.483 125.38C133.483 124.273 133.223 123.407 132.703 122.78C132.196 122.14 131.49 121.82 130.583 121.82Z" fill="#741FFF"/>
<rect x="1" y="1" width="151" height="151" rx="9" stroke="#741FFF" stroke-opacity="0.4" stroke-width="2"/>
<path d="M103.333 56.4167V46.6833C103.333 41.5729 103.333 39.0176 102.216 37.0657C101.233 35.3487 99.6654 33.9528 97.7367 33.0779C95.5441 32.0833 92.6738 32.0833 86.9333 32.0833H65.0666C59.3261 32.0833 56.4558 32.0833 54.2632 33.0779C52.3346 33.9528 50.7665 35.3487 49.7838 37.0657C48.6666 39.0176 48.6666 41.5729 48.6666 46.6833V78.3167C48.6666 83.4272 48.6666 85.9824 49.7838 87.9343C50.7665 89.6513 52.3346 91.0473 54.2632 91.9221C56.4558 92.9167 59.3261 92.9167 65.0666 92.9167H76M77.7083 59.4583H62.3333M65.75 71.625H62.3333M89.6666 47.2917H62.3333M93.0739 71.1097C90.3415 68.3449 85.7849 67.6011 82.3614 70.1329C78.9378 72.6647 78.4558 76.8977 81.1444 79.8921C83.8329 82.8864 93.0739 89.875 93.0739 89.875C93.0739 89.875 102.315 82.8864 105.004 79.8921C107.692 76.8977 107.269 72.6381 103.786 70.1329C100.304 67.6278 95.8064 68.3449 93.0739 71.1097Z" stroke="#9859FF" stroke-width="2" stroke-linecap="round" stroke-linejoin="round"/>
</svg>
