<svg width="153" height="153" viewBox="0 0 153 153" fill="none" xmlns="http://www.w3.org/2000/svg">
<rect width="153" height="153" fill="white"/>
<path d="M23.8648 124.26V128.6C23.8648 128.84 23.7915 129.047 23.6448 129.22C23.5115 129.38 23.3048 129.527 23.0248 129.66C22.6915 129.833 22.2315 129.973 21.6448 130.08C21.0582 130.2 20.4648 130.26 19.8648 130.26C18.6248 130.26 17.5248 130.033 16.5648 129.58C15.6182 129.127 14.8782 128.433 14.3448 127.5C13.8115 126.567 13.5448 125.38 13.5448 123.94C13.5448 122.513 13.8182 121.333 14.3648 120.4C14.9248 119.453 15.6648 118.747 16.5848 118.28C17.5048 117.813 18.5115 117.58 19.6048 117.58C20.3648 117.58 21.0315 117.66 21.6048 117.82C22.1782 117.98 22.6248 118.18 22.9448 118.42C23.2648 118.66 23.4248 118.907 23.4248 119.16C23.4248 119.333 23.3715 119.493 23.2648 119.64C23.1582 119.773 23.0315 119.873 22.8848 119.94C22.5248 119.7 22.0982 119.48 21.6048 119.28C21.1115 119.067 20.4782 118.96 19.7048 118.96C18.8648 118.96 18.1048 119.147 17.4248 119.52C16.7448 119.893 16.2048 120.453 15.8048 121.2C15.4182 121.933 15.2248 122.847 15.2248 123.94C15.2248 125.087 15.4248 126.027 15.8248 126.76C16.2382 127.48 16.7982 128.013 17.5048 128.36C18.2115 128.707 19.0048 128.88 19.8848 128.88C20.3648 128.88 20.8182 128.84 21.2448 128.76C21.6715 128.68 22.0048 128.58 22.2448 128.46V124.78H19.2248C19.1848 124.713 19.1448 124.627 19.1048 124.52C19.0648 124.4 19.0448 124.273 19.0448 124.14C19.0448 123.913 19.0982 123.74 19.2048 123.62C19.3115 123.487 19.4648 123.42 19.6648 123.42H23.0048C23.2448 123.42 23.4448 123.5 23.6048 123.66C23.7782 123.807 23.8648 124.007 23.8648 124.26ZM27.3964 126.4L27.3164 125.14L33.3564 124.32C33.3031 123.587 33.0497 122.987 32.5964 122.52C32.1431 122.04 31.5164 121.8 30.7164 121.8C29.8897 121.8 29.2031 122.1 28.6564 122.7C28.1231 123.287 27.8564 124.133 27.8564 125.24V125.68C27.9497 126.747 28.2964 127.56 28.8964 128.12C29.5097 128.667 30.3431 128.94 31.3964 128.94C31.9564 128.94 32.4631 128.847 32.9164 128.66C33.3697 128.473 33.7297 128.273 33.9964 128.06C34.1431 128.153 34.2564 128.267 34.3364 128.4C34.4297 128.52 34.4764 128.66 34.4764 128.82C34.4764 129.073 34.3297 129.313 34.0364 129.54C33.7564 129.753 33.3764 129.927 32.8964 130.06C32.4297 130.193 31.9031 130.26 31.3164 130.26C30.2897 130.26 29.3964 130.073 28.6364 129.7C27.8897 129.327 27.3097 128.773 26.8964 128.04C26.4964 127.293 26.2964 126.387 26.2964 125.32C26.2964 124.56 26.4031 123.887 26.6164 123.3C26.8431 122.7 27.1497 122.193 27.5364 121.78C27.9364 121.367 28.4097 121.053 28.9564 120.84C29.5031 120.613 30.0964 120.5 30.7364 120.5C31.5497 120.5 32.2631 120.673 32.8764 121.02C33.5031 121.367 33.9897 121.853 34.3364 122.48C34.6964 123.093 34.8764 123.8 34.8764 124.6C34.8764 124.893 34.8097 125.107 34.6764 125.24C34.5431 125.36 34.3564 125.433 34.1164 125.46L27.3964 126.4ZM38.7875 122.48V125.64H37.1875V122.6C37.1875 122.293 37.2408 122.053 37.3475 121.88C37.4675 121.693 37.6608 121.513 37.9275 121.34C38.2742 121.113 38.7475 120.92 39.3475 120.76C39.9475 120.587 40.6142 120.5 41.3475 120.5C42.4142 120.5 42.9475 120.767 42.9475 121.3C42.9475 121.433 42.9275 121.56 42.8875 121.68C42.8475 121.787 42.7942 121.88 42.7275 121.96C42.5942 121.933 42.4208 121.907 42.2075 121.88C41.9942 121.853 41.7808 121.84 41.5675 121.84C40.9542 121.84 40.4142 121.907 39.9475 122.04C39.4808 122.16 39.0942 122.307 38.7875 122.48ZM37.1875 124.72L38.7875 124.96V129.96C38.7208 129.987 38.6208 130.013 38.4875 130.04C38.3542 130.08 38.2075 130.1 38.0475 130.1C37.7675 130.1 37.5542 130.047 37.4075 129.94C37.2608 129.82 37.1875 129.633 37.1875 129.38V124.72ZM45.2089 126.4L45.1289 125.14L51.1689 124.32C51.1156 123.587 50.8622 122.987 50.4089 122.52C49.9556 122.04 49.3289 121.8 48.5289 121.8C47.7022 121.8 47.0156 122.1 46.4689 122.7C45.9356 123.287 45.6689 124.133 45.6689 125.24V125.68C45.7622 126.747 46.1089 127.56 46.7089 128.12C47.3222 128.667 48.1556 128.94 49.2089 128.94C49.7689 128.94 50.2756 128.847 50.7289 128.66C51.1822 128.473 51.5422 128.273 51.8089 128.06C51.9556 128.153 52.0689 128.267 52.1489 128.4C52.2422 128.52 52.2889 128.66 52.2889 128.82C52.2889 129.073 52.1422 129.313 51.8489 129.54C51.5689 129.753 51.1889 129.927 50.7089 130.06C50.2422 130.193 49.7156 130.26 49.1289 130.26C48.1022 130.26 47.2089 130.073 46.4489 129.7C45.7022 129.327 45.1222 128.773 44.7089 128.04C44.3089 127.293 44.1089 126.387 44.1089 125.32C44.1089 124.56 44.2156 123.887 44.4289 123.3C44.6556 122.7 44.9622 122.193 45.3489 121.78C45.7489 121.367 46.2222 121.053 46.7689 120.84C47.3156 120.613 47.9089 120.5 48.5489 120.5C49.3622 120.5 50.0756 120.673 50.6889 121.02C51.3156 121.367 51.8022 121.853 52.1489 122.48C52.5089 123.093 52.6889 123.8 52.6889 124.6C52.6889 124.893 52.6222 125.107 52.4889 125.24C52.3556 125.36 52.1689 125.433 51.9289 125.46L45.2089 126.4ZM63 123.9V125.94H61.4V123.98C61.4 123.233 61.1867 122.687 60.76 122.34C60.3467 121.993 59.7867 121.82 59.08 121.82C58.5467 121.82 58.0733 121.887 57.66 122.02C57.2467 122.153 56.8933 122.307 56.6 122.48V125.94H55V122.56C55 122.28 55.0533 122.053 55.16 121.88C55.28 121.693 55.48 121.513 55.76 121.34C56.1067 121.14 56.5667 120.953 57.14 120.78C57.7133 120.593 58.36 120.5 59.08 120.5C60.2933 120.5 61.2467 120.78 61.94 121.34C62.6467 121.887 63 122.74 63 123.9ZM55 124.84H56.6V129.96C56.5333 129.987 56.4333 130.013 56.3 130.04C56.1667 130.08 56.02 130.1 55.86 130.1C55.58 130.1 55.3667 130.047 55.22 129.94C55.0733 129.82 55 129.633 55 129.38V124.84ZM61.4 124.84H63V129.96C62.9333 129.987 62.8267 130.013 62.68 130.04C62.5467 130.08 62.4067 130.1 62.26 130.1C61.9667 130.1 61.7467 130.047 61.6 129.94C61.4667 129.82 61.4 129.633 61.4 129.38V124.84ZM70.2761 121.84C69.3694 121.84 68.6161 122.147 68.0161 122.76C67.4161 123.373 67.1161 124.253 67.1161 125.4C67.1161 126.533 67.4028 127.407 67.9761 128.02C68.5628 128.633 69.3294 128.94 70.2761 128.94C70.8361 128.94 71.3028 128.867 71.6761 128.72C72.0494 128.56 72.3828 128.38 72.6761 128.18C72.8228 128.26 72.9428 128.36 73.0361 128.48C73.1294 128.6 73.1761 128.747 73.1761 128.92C73.1761 129.293 72.8961 129.613 72.3361 129.88C71.7894 130.133 71.1028 130.26 70.2761 130.26C69.3561 130.26 68.5294 130.087 67.7961 129.74C67.0761 129.38 66.5094 128.84 66.0961 128.12C65.6828 127.4 65.4761 126.493 65.4761 125.4C65.4761 124.32 65.6894 123.42 66.1161 122.7C66.5428 121.967 67.1161 121.42 67.8361 121.06C68.5694 120.687 69.3694 120.5 70.2361 120.5C71.0628 120.5 71.7428 120.64 72.2761 120.92C72.8228 121.2 73.0961 121.52 73.0961 121.88C73.0961 122.04 73.0494 122.18 72.9561 122.3C72.8628 122.42 72.7428 122.513 72.5961 122.58C72.3028 122.38 71.9761 122.207 71.6161 122.06C71.2694 121.913 70.8228 121.84 70.2761 121.84ZM75.4069 117.84C75.4069 117.56 75.5069 117.327 75.7069 117.14C75.9069 116.94 76.1535 116.84 76.4469 116.84C76.7535 116.84 77.0002 116.94 77.1869 117.14C77.3735 117.327 77.4669 117.56 77.4669 117.84C77.4669 118.12 77.3735 118.36 77.1869 118.56C77.0002 118.747 76.7535 118.84 76.4469 118.84C76.1535 118.84 75.9069 118.747 75.7069 118.56C75.5069 118.36 75.4069 118.12 75.4069 117.84ZM75.6469 124.72H77.2469V129.96C77.1802 129.987 77.0802 130.013 76.9469 130.04C76.8135 130.08 76.6669 130.1 76.5069 130.1C76.2269 130.1 76.0135 130.047 75.8669 129.94C75.7202 129.82 75.6469 129.633 75.6469 129.38V124.72ZM77.2469 125.5H75.6469V120.8C75.7135 120.773 75.8135 120.747 75.9469 120.72C76.0935 120.68 76.2469 120.66 76.4069 120.66C76.6869 120.66 76.8935 120.72 77.0269 120.84C77.1735 120.947 77.2469 121.133 77.2469 121.4V125.5ZM83.6711 128.96C84.2311 128.96 84.6911 128.907 85.0511 128.8C85.4244 128.68 85.6911 128.567 85.8511 128.46V125.56L83.3711 125.82C82.6778 125.873 82.1644 126.027 81.8311 126.28C81.4978 126.533 81.3311 126.9 81.3311 127.38C81.3311 127.873 81.5244 128.26 81.9111 128.54C82.3111 128.82 82.8978 128.96 83.6711 128.96ZM83.6511 120.5C84.8111 120.5 85.7311 120.76 86.4111 121.28C87.0911 121.8 87.4311 122.62 87.4311 123.74V128.48C87.4311 128.773 87.3711 129 87.2511 129.16C87.1444 129.307 86.9778 129.447 86.7511 129.58C86.4311 129.753 86.0044 129.913 85.4711 130.06C84.9378 130.207 84.3378 130.28 83.6711 130.28C82.4178 130.28 81.4444 130.033 80.7511 129.54C80.0711 129.047 79.7311 128.333 79.7311 127.4C79.7311 126.533 80.0178 125.873 80.5911 125.42C81.1778 124.953 81.9844 124.673 83.0111 124.58L85.8511 124.3V123.74C85.8511 123.073 85.6511 122.587 85.2511 122.28C84.8511 121.973 84.3111 121.82 83.6311 121.82C83.0844 121.82 82.5578 121.9 82.0511 122.06C81.5578 122.22 81.1178 122.4 80.7311 122.6C80.6244 122.507 80.5244 122.4 80.4311 122.28C80.3511 122.147 80.3111 122.013 80.3111 121.88C80.3111 121.533 80.5044 121.267 80.8911 121.08C81.2511 120.893 81.6644 120.753 82.1311 120.66C82.6111 120.553 83.1178 120.5 83.6511 120.5ZM91.9516 122.48V125.64H90.3516V122.6C90.3516 122.293 90.4049 122.053 90.5116 121.88C90.6316 121.693 90.8249 121.513 91.0916 121.34C91.4382 121.113 91.9116 120.92 92.5116 120.76C93.1116 120.587 93.7782 120.5 94.5116 120.5C95.5782 120.5 96.1116 120.767 96.1116 121.3C96.1116 121.433 96.0916 121.56 96.0516 121.68C96.0116 121.787 95.9582 121.88 95.8916 121.96C95.7582 121.933 95.5849 121.907 95.3716 121.88C95.1582 121.853 94.9449 121.84 94.7316 121.84C94.1182 121.84 93.5782 121.907 93.1116 122.04C92.6449 122.16 92.2582 122.307 91.9516 122.48ZM90.3516 124.72L91.9516 124.96V129.96C91.8849 129.987 91.7849 130.013 91.6516 130.04C91.5182 130.08 91.3716 130.1 91.2116 130.1C90.9316 130.1 90.7182 130.047 90.5716 129.94C90.4249 129.82 90.3516 129.633 90.3516 129.38V124.72ZM106.272 121.84C105.366 121.84 104.612 122.147 104.012 122.76C103.412 123.373 103.112 124.253 103.112 125.4C103.112 126.533 103.399 127.407 103.972 128.02C104.559 128.633 105.326 128.94 106.272 128.94C106.832 128.94 107.299 128.867 107.672 128.72C108.046 128.56 108.379 128.38 108.672 128.18C108.819 128.26 108.939 128.36 109.032 128.48C109.126 128.6 109.172 128.747 109.172 128.92C109.172 129.293 108.892 129.613 108.332 129.88C107.786 130.133 107.099 130.26 106.272 130.26C105.352 130.26 104.526 130.087 103.792 129.74C103.072 129.38 102.506 128.84 102.092 128.12C101.679 127.4 101.472 126.493 101.472 125.4C101.472 124.32 101.686 123.42 102.112 122.7C102.539 121.967 103.112 121.42 103.832 121.06C104.566 120.687 105.366 120.5 106.232 120.5C107.059 120.5 107.739 120.64 108.272 120.92C108.819 121.2 109.092 121.52 109.092 121.88C109.092 122.04 109.046 122.18 108.952 122.3C108.859 122.42 108.739 122.513 108.592 122.58C108.299 122.38 107.972 122.207 107.612 122.06C107.266 121.913 106.819 121.84 106.272 121.84ZM114.921 128.96C115.481 128.96 115.941 128.907 116.301 128.8C116.674 128.68 116.941 128.567 117.101 128.46V125.56L114.621 125.82C113.928 125.873 113.414 126.027 113.081 126.28C112.748 126.533 112.581 126.9 112.581 127.38C112.581 127.873 112.774 128.26 113.161 128.54C113.561 128.82 114.148 128.96 114.921 128.96ZM114.901 120.5C116.061 120.5 116.981 120.76 117.661 121.28C118.341 121.8 118.681 122.62 118.681 123.74V128.48C118.681 128.773 118.621 129 118.501 129.16C118.394 129.307 118.228 129.447 118.001 129.58C117.681 129.753 117.254 129.913 116.721 130.06C116.188 130.207 115.588 130.28 114.921 130.28C113.668 130.28 112.694 130.033 112.001 129.54C111.321 129.047 110.981 128.333 110.981 127.4C110.981 126.533 111.268 125.873 111.841 125.42C112.428 124.953 113.234 124.673 114.261 124.58L117.101 124.3V123.74C117.101 123.073 116.901 122.587 116.501 122.28C116.101 121.973 115.561 121.82 114.881 121.82C114.334 121.82 113.808 121.9 113.301 122.06C112.808 122.22 112.368 122.4 111.981 122.6C111.874 122.507 111.774 122.4 111.681 122.28C111.601 122.147 111.561 122.013 111.561 121.88C111.561 121.533 111.754 121.267 112.141 121.08C112.501 120.893 112.914 120.753 113.381 120.66C113.861 120.553 114.368 120.5 114.901 120.5ZM113.461 116.98C113.834 116.98 114.168 117.04 114.461 117.16C114.768 117.267 115.048 117.38 115.301 117.5C115.568 117.607 115.814 117.66 116.041 117.66C116.281 117.66 116.454 117.587 116.561 117.44C116.681 117.293 116.768 117.113 116.821 116.9H116.941C117.181 116.9 117.394 116.96 117.581 117.08C117.768 117.187 117.861 117.38 117.861 117.66C117.861 118.033 117.728 118.333 117.461 118.56C117.194 118.787 116.841 118.9 116.401 118.9C116.028 118.9 115.681 118.84 115.361 118.72C115.041 118.6 114.748 118.487 114.481 118.38C114.214 118.26 113.974 118.2 113.761 118.2C113.521 118.2 113.348 118.273 113.241 118.42C113.134 118.567 113.054 118.753 113.001 118.98H112.881C112.641 118.98 112.428 118.92 112.241 118.8C112.054 118.68 111.961 118.487 111.961 118.22C111.961 117.953 112.028 117.733 112.161 117.56C112.308 117.373 112.494 117.233 112.721 117.14C112.961 117.033 113.208 116.98 113.461 116.98ZM122.182 126.4L122.102 125.14L128.142 124.32C128.088 123.587 127.835 122.987 127.382 122.52C126.928 122.04 126.302 121.8 125.502 121.8C124.675 121.8 123.988 122.1 123.442 122.7C122.908 123.287 122.642 124.133 122.642 125.24V125.68C122.735 126.747 123.082 127.56 123.682 128.12C124.295 128.667 125.128 128.94 126.182 128.94C126.742 128.94 127.248 128.847 127.702 128.66C128.155 128.473 128.515 128.273 128.782 128.06C128.928 128.153 129.042 128.267 129.122 128.4C129.215 128.52 129.262 128.66 129.262 128.82C129.262 129.073 129.115 129.313 128.822 129.54C128.542 129.753 128.162 129.927 127.682 130.06C127.215 130.193 126.688 130.26 126.102 130.26C125.075 130.26 124.182 130.073 123.422 129.7C122.675 129.327 122.095 128.773 121.682 128.04C121.282 127.293 121.082 126.387 121.082 125.32C121.082 124.56 121.188 123.887 121.402 123.3C121.628 122.7 121.935 122.193 122.322 121.78C122.722 121.367 123.195 121.053 123.742 120.84C124.288 120.613 124.882 120.5 125.522 120.5C126.335 120.5 127.048 120.673 127.662 121.02C128.288 121.367 128.775 121.853 129.122 122.48C129.482 123.093 129.662 123.8 129.662 124.6C129.662 124.893 129.595 125.107 129.462 125.24C129.328 125.36 129.142 125.433 128.902 125.46L122.182 126.4ZM138.61 127.54C138.61 128.393 138.297 129.06 137.67 129.54C137.043 130.02 136.137 130.26 134.95 130.26C133.937 130.26 133.11 130.107 132.47 129.8C131.83 129.48 131.51 129.133 131.51 128.76C131.51 128.6 131.55 128.447 131.63 128.3C131.723 128.14 131.857 128.013 132.03 127.92C132.39 128.173 132.81 128.407 133.29 128.62C133.77 128.833 134.317 128.94 134.93 128.94C136.317 128.94 137.01 128.473 137.01 127.54C137.01 127.153 136.89 126.84 136.65 126.6C136.423 126.347 136.083 126.167 135.63 126.06L133.97 125.62C133.157 125.42 132.563 125.113 132.19 124.7C131.817 124.273 131.63 123.747 131.63 123.12C131.63 122.413 131.917 121.8 132.49 121.28C133.063 120.76 133.937 120.5 135.11 120.5C135.737 120.5 136.283 120.567 136.75 120.7C137.217 120.82 137.577 120.987 137.83 121.2C138.097 121.4 138.23 121.62 138.23 121.86C138.23 122.033 138.183 122.187 138.09 122.32C138.01 122.453 137.897 122.553 137.75 122.62C137.59 122.513 137.383 122.4 137.13 122.28C136.89 122.147 136.603 122.04 136.27 121.96C135.937 121.867 135.57 121.82 135.17 121.82C134.583 121.82 134.11 121.933 133.75 122.16C133.39 122.387 133.21 122.707 133.21 123.12C133.21 123.413 133.31 123.673 133.51 123.9C133.723 124.113 134.057 124.273 134.51 124.38L135.89 124.72C136.797 124.933 137.477 125.273 137.93 125.74C138.383 126.193 138.61 126.793 138.61 127.54Z" fill="#741FFF"/>
<rect x="1" y="1" width="151" height="151" rx="9" stroke="#741FFF" stroke-opacity="0.4" stroke-width="2"/>
<path d="M103.333 56.4167V46.6833C103.333 41.5729 103.333 39.0176 102.216 37.0657C101.233 35.3487 99.6654 33.9528 97.7368 33.0779C95.5442 32.0833 92.6739 32.0833 86.9334 32.0833H65.0667C59.3261 32.0833 56.4559 32.0833 54.2633 33.0779C52.3346 33.9528 50.7666 35.3487 49.7839 37.0657C48.6667 39.0176 48.6667 41.5729 48.6667 46.6833V78.3167C48.6667 83.4272 48.6667 85.9824 49.7839 87.9343C50.7666 89.6513 52.3346 91.0473 54.2633 91.9221C56.4559 92.9167 59.3261 92.9167 65.0667 92.9167H76M77.7084 59.4583H62.3334M65.75 71.625H62.3334M89.6667 47.2917H62.3334M93.074 71.1097C90.3415 68.3449 85.785 67.6011 82.3614 70.1329C78.9379 72.6647 78.4559 76.8977 81.1444 79.8921C83.833 82.8864 93.074 89.875 93.074 89.875C93.074 89.875 102.315 82.8864 105.004 79.8921C107.692 76.8977 107.269 72.6381 103.787 70.1329C100.304 67.6278 95.8064 68.3449 93.074 71.1097Z" stroke="#9859FF" stroke-width="2" stroke-linecap="round" stroke-linejoin="round"/>
</svg>
