<svg width="153" height="153" viewBox="0 0 153 153" fill="none" xmlns="http://www.w3.org/2000/svg">
<rect width="153" height="153" fill="white"/>
<path d="M53.577 126.84C53.4836 126.907 53.357 126.967 53.197 127.02C53.0503 127.073 52.8836 127.1 52.697 127.1C52.4836 127.1 52.2903 127.067 52.117 127C51.957 126.933 51.8436 126.827 51.777 126.68C51.0703 125.187 50.4503 123.82 49.917 122.58C49.397 121.34 48.977 120.313 48.657 119.5H48.577C48.537 120.5 48.4903 121.433 48.437 122.3C48.397 123.167 48.3503 124.007 48.297 124.82C48.2436 125.62 48.1903 126.447 48.137 127.3C48.097 128.14 48.0436 129.04 47.977 130C47.897 130.027 47.7903 130.053 47.657 130.08C47.537 130.107 47.4036 130.12 47.257 130.12C46.9636 130.12 46.757 130.06 46.637 129.94C46.517 129.807 46.457 129.633 46.457 129.42C46.457 129.26 46.4703 128.893 46.497 128.32C46.537 127.733 46.577 127.02 46.617 126.18C46.6703 125.34 46.7303 124.447 46.797 123.5C46.8636 122.54 46.9303 121.6 46.997 120.68C47.077 119.747 47.1503 118.907 47.217 118.16C47.3236 118.067 47.477 117.98 47.677 117.9C47.877 117.82 48.1036 117.78 48.357 117.78C48.6636 117.78 48.9236 117.84 49.137 117.96C49.3503 118.08 49.517 118.267 49.637 118.52C49.9836 119.2 50.3303 119.94 50.677 120.74C51.0236 121.54 51.3636 122.34 51.697 123.14C52.0303 123.94 52.3503 124.693 52.657 125.4H52.737C53.3236 123.987 53.9036 122.627 54.477 121.32C55.0636 120.013 55.557 118.9 55.957 117.98C56.077 117.913 56.2303 117.867 56.417 117.84C56.6036 117.8 56.777 117.78 56.937 117.78C57.2436 117.78 57.4836 117.833 57.657 117.94C57.8436 118.033 57.9636 118.193 58.017 118.42C58.0703 118.647 58.1303 119.033 58.197 119.58C58.2636 120.127 58.3303 120.773 58.397 121.52C58.4636 122.253 58.5236 123.027 58.577 123.84C58.6436 124.653 58.7036 125.453 58.757 126.24C58.8103 127.027 58.857 127.74 58.897 128.38C58.9503 129.007 58.9836 129.507 58.997 129.88C58.877 129.96 58.7503 130.02 58.617 130.06C58.4836 130.1 58.3303 130.12 58.157 130.12C57.957 130.12 57.777 130.073 57.617 129.98C57.4703 129.873 57.3836 129.687 57.357 129.42C57.277 128.127 57.197 126.853 57.117 125.6C57.0503 124.333 56.9903 123.173 56.937 122.12C56.8836 121.067 56.837 120.207 56.797 119.54H56.717C56.4236 120.273 56.0236 121.22 55.517 122.38C55.0103 123.527 54.3636 125.013 53.577 126.84ZM65.2824 128.96C65.8424 128.96 66.3024 128.907 66.6624 128.8C67.0358 128.68 67.3024 128.567 67.4624 128.46V125.56L64.9824 125.82C64.2891 125.873 63.7758 126.027 63.4424 126.28C63.1091 126.533 62.9424 126.9 62.9424 127.38C62.9424 127.873 63.1358 128.26 63.5224 128.54C63.9224 128.82 64.5091 128.96 65.2824 128.96ZM65.2624 120.5C66.4224 120.5 67.3424 120.76 68.0224 121.28C68.7024 121.8 69.0424 122.62 69.0424 123.74V128.48C69.0424 128.773 68.9824 129 68.8624 129.16C68.7558 129.307 68.5891 129.447 68.3624 129.58C68.0424 129.753 67.6158 129.913 67.0824 130.06C66.5491 130.207 65.9491 130.28 65.2824 130.28C64.0291 130.28 63.0558 130.033 62.3624 129.54C61.6824 129.047 61.3424 128.333 61.3424 127.4C61.3424 126.533 61.6291 125.873 62.2024 125.42C62.7891 124.953 63.5958 124.673 64.6224 124.58L67.4624 124.3V123.74C67.4624 123.073 67.2624 122.587 66.8624 122.28C66.4624 121.973 65.9224 121.82 65.2424 121.82C64.6958 121.82 64.1691 121.9 63.6624 122.06C63.1691 122.22 62.7291 122.4 62.3424 122.6C62.2358 122.507 62.1358 122.4 62.0424 122.28C61.9624 122.147 61.9224 122.013 61.9224 121.88C61.9224 121.533 62.1158 121.267 62.5024 121.08C62.8624 120.893 63.2758 120.753 63.7424 120.66C64.2224 120.553 64.7291 120.5 65.2624 120.5ZM71.9829 124.72H73.5829V127.48C73.5829 128.013 73.7362 128.393 74.0429 128.62C74.3496 128.833 74.7696 128.94 75.3029 128.94C75.5296 128.94 75.7829 128.9 76.0629 128.82C76.3429 128.74 76.5762 128.647 76.7629 128.54C76.8429 128.62 76.9162 128.72 76.9829 128.84C77.0496 128.96 77.0829 129.1 77.0829 129.26C77.0829 129.553 76.9096 129.793 76.5629 129.98C76.2162 130.167 75.7362 130.26 75.1229 130.26C74.1896 130.26 73.4296 130.053 72.8429 129.64C72.2696 129.227 71.9829 128.54 71.9829 127.58V124.72ZM72.8029 122.28V120.96H76.8629C76.9029 121.013 76.9429 121.1 76.9829 121.22C77.0229 121.34 77.0429 121.467 77.0429 121.6C77.0429 121.813 76.9896 121.98 76.8829 122.1C76.7762 122.22 76.6296 122.28 76.4429 122.28H72.8029ZM73.5829 125.32H71.9829V118.08C72.0496 118.053 72.1496 118.027 72.2829 118C72.4296 117.96 72.5829 117.94 72.7429 117.94C73.0229 117.94 73.2296 118 73.3629 118.12C73.5096 118.227 73.5829 118.407 73.5829 118.66V125.32ZM83.3913 121.84C82.4847 121.84 81.7313 122.147 81.1313 122.76C80.5313 123.373 80.2313 124.253 80.2313 125.4C80.2313 126.533 80.518 127.407 81.0913 128.02C81.678 128.633 82.4447 128.94 83.3913 128.94C83.9513 128.94 84.418 128.867 84.7913 128.72C85.1647 128.56 85.498 128.38 85.7913 128.18C85.938 128.26 86.058 128.36 86.1513 128.48C86.2447 128.6 86.2913 128.747 86.2913 128.92C86.2913 129.293 86.0113 129.613 85.4513 129.88C84.9047 130.133 84.218 130.26 83.3913 130.26C82.4713 130.26 81.6447 130.087 80.9113 129.74C80.1913 129.38 79.6247 128.84 79.2113 128.12C78.798 127.4 78.5913 126.493 78.5913 125.4C78.5913 124.32 78.8047 123.42 79.2313 122.7C79.658 121.967 80.2313 121.42 80.9513 121.06C81.6847 120.687 82.4847 120.5 83.3513 120.5C84.178 120.5 84.858 120.64 85.3913 120.92C85.938 121.2 86.2113 121.52 86.2113 121.88C86.2113 122.04 86.1647 122.18 86.0713 122.3C85.978 122.42 85.858 122.513 85.7113 122.58C85.418 122.38 85.0913 122.207 84.7313 122.06C84.3847 121.913 83.938 121.84 83.3913 121.84ZM96.6821 126.02H95.0821V124.18C95.0821 123.38 94.8554 122.787 94.4021 122.4C93.9621 122.013 93.3888 121.82 92.6821 121.82C92.1621 121.82 91.6754 121.92 91.2221 122.12C90.7821 122.32 90.4088 122.56 90.1021 122.84L89.8021 121.54C90.1221 121.313 90.5421 121.087 91.0621 120.86C91.5954 120.62 92.2088 120.5 92.9021 120.5C94.0088 120.5 94.9154 120.8 95.6221 121.4C96.3288 122 96.6821 122.913 96.6821 124.14V126.02ZM88.7021 124.72H90.3021V129.96C90.2354 129.987 90.1354 130.013 90.0021 130.04C89.8688 130.08 89.7221 130.1 89.5621 130.1C89.2821 130.1 89.0688 130.047 88.9221 129.94C88.7754 129.82 88.7021 129.633 88.7021 129.38V124.72ZM95.0821 124.74L96.6821 124.76V129.96C96.6154 129.987 96.5088 130.013 96.3621 130.04C96.2288 130.08 96.0888 130.1 95.9421 130.1C95.6488 130.1 95.4288 130.047 95.2821 129.94C95.1488 129.82 95.0821 129.633 95.0821 129.38V124.74ZM90.3021 125.5H88.7021V117.04C88.7688 117.013 88.8688 116.987 89.0021 116.96C89.1488 116.92 89.3021 116.9 89.4621 116.9C89.7421 116.9 89.9488 116.96 90.0821 117.08C90.2288 117.187 90.3021 117.367 90.3021 117.62V125.5ZM106.198 127.54C106.198 128.393 105.884 129.06 105.258 129.54C104.631 130.02 103.724 130.26 102.538 130.26C101.524 130.26 100.698 130.107 100.058 129.8C99.4177 129.48 99.0977 129.133 99.0977 128.76C99.0977 128.6 99.1377 128.447 99.2177 128.3C99.3111 128.14 99.4444 128.013 99.6177 127.92C99.9777 128.173 100.398 128.407 100.878 128.62C101.358 128.833 101.904 128.94 102.518 128.94C103.904 128.94 104.598 128.473 104.598 127.54C104.598 127.153 104.478 126.84 104.238 126.6C104.011 126.347 103.671 126.167 103.218 126.06L101.558 125.62C100.744 125.42 100.151 125.113 99.7777 124.7C99.4044 124.273 99.2177 123.747 99.2177 123.12C99.2177 122.413 99.5044 121.8 100.078 121.28C100.651 120.76 101.524 120.5 102.698 120.5C103.324 120.5 103.871 120.567 104.338 120.7C104.804 120.82 105.164 120.987 105.418 121.2C105.684 121.4 105.818 121.62 105.818 121.86C105.818 122.033 105.771 122.187 105.678 122.32C105.598 122.453 105.484 122.553 105.338 122.62C105.178 122.513 104.971 122.4 104.718 122.28C104.478 122.147 104.191 122.04 103.858 121.96C103.524 121.867 103.158 121.82 102.758 121.82C102.171 121.82 101.698 121.933 101.338 122.16C100.978 122.387 100.798 122.707 100.798 123.12C100.798 123.413 100.898 123.673 101.098 123.9C101.311 124.113 101.644 124.273 102.098 124.38L103.478 124.72C104.384 124.933 105.064 125.273 105.518 125.74C105.971 126.193 106.198 126.793 106.198 127.54Z" fill="#741FFF"/>
<rect x="1" y="1" width="151" height="151" rx="9" stroke="#741FFF" stroke-opacity="0.4" stroke-width="2"/>
<path d="M65.75 59.4583L72.5834 65.5417L87.9584 51.8542M75.9766 41.6214C69.1455 34.5118 57.7542 32.5993 49.1952 39.1096C40.6363 45.6199 39.4313 56.5048 46.1527 64.2046C51.2295 70.0203 65.652 81.6958 72.4057 87.0611C73.6473 88.0474 74.268 88.5406 74.995 88.7347C75.626 88.9032 76.3273 88.9032 76.9583 88.7347C77.6852 88.5406 78.306 88.0474 79.5475 87.0611C86.3013 81.6958 100.724 70.0203 105.801 64.2046C112.522 56.5048 111.464 45.5514 102.758 39.1096C94.052 32.6678 82.8078 34.5118 75.9766 41.6214Z" stroke="#9859FF" stroke-width="2" stroke-linecap="round" stroke-linejoin="round"/>
</svg>
